M48
METRIC,LZ,000.000
;FILE_FORMAT=3:3
;TYPE=PLATED
;Layer: PTH_Through
;EasyEDA v6.5.14, 2022-08-21 10:02:06
;f0c9403b1c134f068d22612342c05ff7,da7caadd334e45d081e68ba313aefb3e,10
;Gerber Generator version 0.2
;Holesize 1 = 0.800 mm
T01C0.800
;Holesize 2 = 0.915 mm
T02C0.915
;Holesize 3 = 1.021 mm
T03C1.021
%
G05
G90
T01
X038645Y037963G85X038645Y039063
X038645Y033213G85X038645Y034313
X031205Y033213G85X031205Y034313
X033305Y032861
X034905Y032861
X034105Y034065
X035705Y034065
X036505Y032861
X031205Y037963G85X031205Y039063
T02
X027305Y-000381
X027305Y-002921
X027305Y-005461
X027305Y-008001
X027305Y-010541
X027305Y-013081
X027305Y-015621
X027305Y-018161
X027305Y-020701
X027305Y-023241
X027305Y-025781
X027305Y-028321
X042545Y-028321
X042545Y-025781
X042545Y-023241
X042545Y-020701
X042545Y-018161
X042545Y-015621
X042545Y-013081
X042545Y-010541
X042545Y-008001
X042545Y-005461
X042545Y-002921
X042545Y-000381
T03
X031750Y027686
X034290Y027686
X039370Y027686
X036830Y027686
M30
