M48
METRIC,LZ,000.000
;FILE_FORMAT=3:3
;TYPE=NON_PLATED
;Layer: NPTH_Through
;EasyEDA v6.5.14, 2022-08-21 10:02:06
;f0c9403b1c134f068d22612342c05ff7,da7caadd334e45d081e68ba313aefb3e,10
;Gerber Generator version 0.2
;Holesize 1 = 0.901 mm
T01C0.901
;Holesize 2 = 1.701 mm
T02C1.701
;Holesize 3 = 3.000 mm
T03C3.000
;Holesize 4 = 4.000 mm
T04C4.000
%
G05
G90
T01
X062865Y028702G85X062865Y028702
X062865Y021082G85X062865Y021082
X081915Y028702G85X081915Y028702
X081915Y021082G85X081915Y021082
X101219Y028702G85X101219Y028702
X101219Y021082G85X101219Y021082
X101219Y009144G85X101219Y009144
X101219Y001524G85X101219Y001524
X081915Y009144G85X081915Y009144
X081915Y001524G85X081915Y001524
X062865Y009144G85X062865Y009144
X062865Y001524G85X062865Y001524
X062865Y-029210G85X062865Y-029210
X062865Y-036830G85X062865Y-036830
X081915Y-029210G85X081915Y-029210
X081915Y-036830G85X081915Y-036830
X101219Y-029210G85X101219Y-029210
X101219Y-036830G85X101219Y-036830
X100747Y-009144G85X100747Y-009144
X100747Y-016764G85X100747Y-016764
X081915Y-009144G85X081915Y-009144
X081915Y-016764G85X081915Y-016764
X062865Y-009144G85X062865Y-009144
X062865Y-016764G85X062865Y-016764
T02
X058928Y030353
X048768Y030353
X058928Y030353
X048768Y030353
X077978Y030353
X067818Y030353
X077978Y030353
X067818Y030353
X097028Y030353
X086868Y030353
X097028Y030353
X086868Y030353
X097028Y011303
X086868Y011303
X097028Y011303
X086868Y011303
X077978Y011303
X067818Y011303
X077978Y011303
X067818Y011303
X058928Y011303
X048768Y011303
X058928Y011303
X048768Y011303
X058928Y-026797
X048768Y-026797
X058928Y-026797
X048768Y-026797
X077978Y-026797
X067818Y-026797
X077978Y-026797
X067818Y-026797
X097028Y-026797
X086868Y-026797
X097028Y-026797
X086868Y-026797
X097028Y-007747
X086868Y-007747
X097028Y-007747
X086868Y-007747
X077978Y-007747
X067818Y-007747
X077978Y-007747
X067818Y-007747
X058928Y-007747
X048768Y-007747
X058928Y-007747
X048768Y-007747
T03
X050038Y032893
X056388Y035433
X056388Y035433
X050038Y032893
X069088Y032893
X075438Y035433
X075438Y035433
X069088Y032893
X088138Y032893
X094488Y035433
X094488Y035433
X088138Y032893
X088138Y013843
X094488Y016383
X094488Y016383
X088138Y013843
X069088Y013843
X075438Y016383
X075438Y016383
X069088Y013843
X050038Y013843
X056388Y016383
X056388Y016383
X050038Y013843
X050038Y-024257
X056388Y-021717
X056388Y-021717
X050038Y-024257
X069088Y-024257
X075438Y-021717
X075438Y-021717
X069088Y-024257
X088138Y-024257
X094488Y-021717
X094488Y-021717
X088138Y-024257
X088138Y-005207
X094488Y-002667
X094488Y-002667
X088138Y-005207
X069088Y-005207
X075438Y-002667
X075438Y-002667
X069088Y-005207
X050038Y-005207
X056388Y-002667
X056388Y-002667
X050038Y-005207
T04
X053848Y030353
X053848Y030353
X072898Y030353
X072898Y030353
X091948Y030353
X091948Y030353
X091948Y011303
X091948Y011303
X072898Y011303
X072898Y011303
X053848Y011303
X053848Y011303
X053848Y-026797
X053848Y-026797
X072898Y-026797
X072898Y-026797
X091948Y-026797
X091948Y-026797
X091948Y-007747
X091948Y-007747
X072898Y-007747
X072898Y-007747
X053848Y-007747
X053848Y-007747
M30
