G04 Layer: BottomSolderMaskLayer*
G04 EasyEDA v6.5.14, 2022-08-21 10:02:06*
G04 f0c9403b1c134f068d22612342c05ff7,da7caadd334e45d081e68ba313aefb3e,10*
G04 Gerber Generator version 0.2*
G04 Scale: 100 percent, Rotated: No, Reflected: No *
G04 Dimensions in millimeters *
G04 leading zeros omitted , absolute positions ,4 integer and 5 decimal *
%FSLAX45Y45*%
%MOMM*%

%AMMACRO1*4,1,4,-1.3259,-1.3005,-1.3259,1.3005,1.3259,1.3005,1.3259,-1.3005,-1.3259,-1.3005,0*%
%AMMACRO2*1,1,$1,$2,$3*1,1,$1,$4,$5*1,1,$1,0-$2,0-$3*1,1,$1,0-$4,0-$5*20,1,$1,$2,$3,$4,$5,0*20,1,$1,$4,$5,0-$2,0-$3,0*20,1,$1,0-$2,0-$3,0-$4,0-$5,0*20,1,$1,0-$4,0-$5,$2,$3,0*4,1,4,$2,$3,$4,$5,0-$2,0-$3,0-$4,0-$5,$2,$3,0*%
%ADD10C,1.7272*%
%ADD11C,1.9812*%
%ADD12O,1.1999976X2.3999952*%
%ADD13C,1.3016*%
%ADD14MACRO1*%
%ADD15MACRO2,0.1016X-0.762X0.762X0.762X0.762*%
%ADD16C,1.6256*%

%LPD*%
D10*
G01*
X3175000Y2768600D03*
G01*
X3429000Y2768600D03*
G01*
X3937000Y2768600D03*
G01*
X3683000Y2768600D03*
D11*
G01*
X6286500Y2870200D03*
G01*
X6286500Y2108200D03*
G01*
X8191502Y2870200D03*
G01*
X8191502Y2108200D03*
G01*
X10121902Y2870200D03*
G01*
X10121902Y2108200D03*
G01*
X10121900Y914397D03*
G01*
X10121900Y152397D03*
G01*
X8191500Y914397D03*
G01*
X8191500Y152397D03*
G01*
X6286500Y914400D03*
G01*
X6286500Y152400D03*
G01*
X6286500Y-2921000D03*
G01*
X6286500Y-3683000D03*
G01*
X8191500Y-2921002D03*
G01*
X8191500Y-3683002D03*
G01*
X10121900Y-2921002D03*
G01*
X10121900Y-3683002D03*
G01*
X10074653Y-914400D03*
G01*
X10074653Y-1676400D03*
G01*
X8191500Y-914400D03*
G01*
X8191500Y-1676400D03*
G01*
X6286500Y-914400D03*
G01*
X6286500Y-1676400D03*
D12*
G01*
X3864483Y3851275D03*
G01*
X3864483Y3376269D03*
G01*
X3120516Y3376269D03*
D13*
G01*
X3330524Y3286099D03*
G01*
X3490518Y3286099D03*
G01*
X3410534Y3406470D03*
G01*
X3570528Y3406470D03*
G01*
X3650513Y3286099D03*
D12*
G01*
X3120516Y3851275D03*
D14*
G01*
X5993892Y3543300D03*
G01*
X4648707Y3289300D03*
G01*
X7898892Y3543300D03*
G01*
X6553708Y3289300D03*
G01*
X9803892Y3543300D03*
G01*
X8458708Y3289300D03*
G01*
X9803892Y1638300D03*
G01*
X8458708Y1384300D03*
G01*
X7898892Y1638300D03*
G01*
X6553708Y1384300D03*
G01*
X5993892Y1638300D03*
G01*
X4648707Y1384300D03*
G01*
X5993892Y-2171700D03*
G01*
X4648707Y-2425700D03*
G01*
X7898892Y-2171700D03*
G01*
X6553708Y-2425700D03*
G01*
X9803892Y-2171700D03*
G01*
X8458708Y-2425700D03*
G01*
X9803892Y-266700D03*
G01*
X8458708Y-520700D03*
G01*
X7898892Y-266700D03*
G01*
X6553708Y-520700D03*
G01*
X5993892Y-266700D03*
G01*
X4648707Y-520700D03*
D15*
G01*
X2730502Y-38102D03*
D16*
G01*
X2730500Y-292100D03*
G01*
X2730500Y-546100D03*
G01*
X2730500Y-800100D03*
G01*
X2730500Y-1054100D03*
G01*
X2730500Y-1308100D03*
G01*
X2730500Y-1562100D03*
G01*
X2730500Y-1816100D03*
G01*
X2730500Y-2070100D03*
G01*
X2730500Y-2324100D03*
G01*
X2730500Y-2578100D03*
G01*
X2730500Y-2832100D03*
G01*
X4254500Y-2832100D03*
G01*
X4254500Y-2578100D03*
G01*
X4254500Y-2324100D03*
G01*
X4254500Y-2070100D03*
G01*
X4254500Y-1816100D03*
G01*
X4254500Y-1562100D03*
G01*
X4254500Y-1308100D03*
G01*
X4254500Y-1054100D03*
G01*
X4254500Y-800100D03*
G01*
X4254500Y-546100D03*
G01*
X4254500Y-292100D03*
G01*
X4254500Y-38100D03*
M02*
