G04 Layer: TopLayer*
G04 EasyEDA v6.5.14, 2022-08-21 10:02:06*
G04 f0c9403b1c134f068d22612342c05ff7,da7caadd334e45d081e68ba313aefb3e,10*
G04 Gerber Generator version 0.2*
G04 Scale: 100 percent, Rotated: No, Reflected: No *
G04 Dimensions in millimeters *
G04 leading zeros omitted , absolute positions ,4 integer and 5 decimal *
%FSLAX45Y45*%
%MOMM*%

%ADD10C,0.4000*%
%ADD11C,1.5240*%
%ADD12C,1.8796*%
%ADD13O,1.1999976X2.3999952*%
%ADD14C,1.2000*%
%ADD15R,1.5240X1.5240*%

%LPD*%
D10*
X3490468Y3285997D02*
G01*
X3454400Y3249929D01*
X3454400Y2794000D01*
X3429000Y2768600D01*
X3570477Y3406394D02*
G01*
X3707384Y3543300D01*
X3911600Y3543300D01*
X4051300Y3403600D01*
X4051300Y2667000D01*
X3949700Y2565400D01*
X3784600Y2565400D01*
X3683000Y2667000D01*
X3683000Y2768600D01*
X6286500Y2108200D02*
G01*
X4686300Y2108200D01*
X4445000Y1866900D01*
X4445000Y812800D01*
X3441700Y-190500D01*
X3441700Y-1358900D01*
X2730500Y-2070100D01*
X6286500Y-1676400D02*
G01*
X4635500Y-1676400D01*
X4457700Y-1854200D01*
X4457700Y-3162300D01*
X4127500Y-3492500D01*
X3784600Y-3492500D01*
X2870200Y-2578100D01*
X2730500Y-2578100D01*
X6286500Y-3683000D02*
G01*
X3581400Y-3683000D01*
X2730500Y-2832100D01*
X6286500Y152400D02*
G01*
X4127500Y152400D01*
X3644900Y-330200D01*
X3644900Y-1409700D01*
X2730500Y-2324100D01*
X8191502Y2108200D02*
G01*
X6286500Y2108200D01*
X10121902Y2108200D02*
G01*
X8191502Y2108200D01*
X8191500Y152397D02*
G01*
X6286502Y152397D01*
X10121900Y152397D02*
G01*
X8191500Y152397D01*
X8191500Y-1676400D02*
G01*
X6286500Y-1676400D01*
X10074653Y-1676400D02*
G01*
X8191500Y-1676400D01*
X8191500Y-3683002D02*
G01*
X6286502Y-3683002D01*
X10121900Y-3683002D02*
G01*
X8191500Y-3683002D01*
X3410521Y3406482D02*
G01*
X3410521Y3366122D01*
X3330511Y3286112D01*
X3330511Y3286112D02*
G01*
X3311512Y3286112D01*
X3136900Y3111500D01*
X3136900Y2806700D01*
X3175000Y2768600D01*
X3937000Y2768600D02*
G01*
X3937000Y2870200D01*
X3650488Y3156712D01*
X3650488Y3285997D01*
D11*
G01*
X3175000Y2768600D03*
G01*
X3429000Y2768600D03*
G01*
X3937000Y2768600D03*
G01*
X3683000Y2768600D03*
D12*
G01*
X6286500Y2870200D03*
G01*
X6286500Y2108200D03*
G01*
X8191502Y2870200D03*
G01*
X8191502Y2108200D03*
G01*
X10121902Y2870200D03*
G01*
X10121902Y2108200D03*
G01*
X10121900Y914397D03*
G01*
X10121900Y152397D03*
G01*
X8191500Y914397D03*
G01*
X8191500Y152397D03*
G01*
X6286500Y914400D03*
G01*
X6286500Y152400D03*
G01*
X6286500Y-2921000D03*
G01*
X6286500Y-3683000D03*
G01*
X8191500Y-2921002D03*
G01*
X8191500Y-3683002D03*
G01*
X10121900Y-2921002D03*
G01*
X10121900Y-3683002D03*
G01*
X10074653Y-914400D03*
G01*
X10074653Y-1676400D03*
G01*
X8191500Y-914400D03*
G01*
X8191500Y-1676400D03*
G01*
X6286500Y-914400D03*
G01*
X6286500Y-1676400D03*
D13*
G01*
X3864483Y3851275D03*
G01*
X3864483Y3376269D03*
G01*
X3120516Y3376269D03*
D14*
G01*
X3330524Y3286099D03*
G01*
X3490518Y3286099D03*
G01*
X3410534Y3406470D03*
G01*
X3570528Y3406470D03*
G01*
X3650513Y3286099D03*
D13*
G01*
X3120516Y3851275D03*
D15*
G01*
X2730500Y-38100D03*
D11*
G01*
X2730500Y-292100D03*
G01*
X2730500Y-546100D03*
G01*
X2730500Y-800100D03*
G01*
X2730500Y-1054100D03*
G01*
X2730500Y-1308100D03*
G01*
X2730500Y-1562100D03*
G01*
X2730500Y-1816100D03*
G01*
X2730500Y-2070100D03*
G01*
X2730500Y-2324100D03*
G01*
X2730500Y-2578100D03*
G01*
X2730500Y-2832100D03*
G01*
X4254500Y-2832100D03*
G01*
X4254500Y-2578100D03*
G01*
X4254500Y-2324100D03*
G01*
X4254500Y-2070100D03*
G01*
X4254500Y-1816100D03*
G01*
X4254500Y-1562100D03*
G01*
X4254500Y-1308100D03*
G01*
X4254500Y-1054100D03*
G01*
X4254500Y-800100D03*
G01*
X4254500Y-546100D03*
G01*
X4254500Y-292100D03*
G01*
X4254500Y-38100D03*
M02*
