G04 Layer: TopSilkscreenLayer*
G04 EasyEDA v6.5.14, 2022-08-21 10:02:06*
G04 f0c9403b1c134f068d22612342c05ff7,da7caadd334e45d081e68ba313aefb3e,10*
G04 Gerber Generator version 0.2*
G04 Scale: 100 percent, Rotated: No, Reflected: No *
G04 Dimensions in millimeters *
G04 leading zeros omitted , absolute positions ,4 integer and 5 decimal *
%FSLAX45Y45*%
%MOMM*%

%ADD10C,0.2032*%
%ADD11C,0.1524*%
%ADD12C,0.2540*%

%LPD*%
G36*
X3533749Y2093468D02*
G01*
X3443833Y2084730D01*
X3431489Y2083257D01*
X3419500Y2081479D01*
X3407765Y2079396D01*
X3396284Y2076957D01*
X3385007Y2074164D01*
X3373831Y2071014D01*
X3362706Y2067458D01*
X3351631Y2063546D01*
X3340506Y2059178D01*
X3329279Y2054402D01*
X3317951Y2049170D01*
X3307638Y2044090D01*
X3297986Y2038857D01*
X3287826Y2032965D01*
X3277311Y2026462D01*
X3266592Y2019503D01*
X3245104Y2004517D01*
X3234588Y1996744D01*
X3224479Y1988870D01*
X3214878Y1981047D01*
X3205886Y1973376D01*
X3197707Y1965909D01*
X3193034Y1961337D01*
X3278784Y1961337D01*
X3279394Y1963572D01*
X3280664Y1964994D01*
X3282848Y1966671D01*
X3289554Y1970481D01*
X3299002Y1974799D01*
X3310636Y1979371D01*
X3323793Y1983943D01*
X3337966Y1988312D01*
X3358743Y1993849D01*
X3384753Y2000148D01*
X3421176Y2008327D01*
X3450793Y2014524D01*
X3477006Y2019503D01*
X3487623Y2021332D01*
X3514648Y2025040D01*
X3537000Y2027224D01*
X3560165Y2028748D01*
X3584295Y2029612D01*
X3609594Y2029815D01*
X3636213Y2029358D01*
X3664305Y2028240D01*
X3699916Y2026056D01*
X3716477Y2024735D01*
X3745737Y2021738D01*
X3757980Y2020112D01*
X3768293Y2018487D01*
X3776421Y2016861D01*
X3782060Y2015286D01*
X3783888Y2014474D01*
X3785006Y2013712D01*
X3787851Y2008936D01*
X3788257Y2003043D01*
X3786174Y1996439D01*
X3781755Y1989683D01*
X3779062Y1987245D01*
X3774490Y1984044D01*
X3768140Y1980184D01*
X3750868Y1970684D01*
X3728415Y1959457D01*
X3716892Y1953971D01*
X3872077Y1953971D01*
X3872687Y1957527D01*
X3874312Y1960422D01*
X3876751Y1962251D01*
X3879697Y1962810D01*
X3881120Y1962200D01*
X3883355Y1960625D01*
X3889756Y1954784D01*
X3898442Y1945792D01*
X3908907Y1934260D01*
X3920540Y1920646D01*
X3940759Y1895805D01*
X3976268Y1850847D01*
X4016501Y1798675D01*
X4026560Y1784553D01*
X4035602Y1770380D01*
X4043222Y1756765D01*
X4046423Y1750415D01*
X4049115Y1744472D01*
X4051249Y1739036D01*
X4052824Y1734210D01*
X4053789Y1729993D01*
X4054094Y1726590D01*
X4053840Y1722475D01*
X4053332Y1719275D01*
X4052366Y1717090D01*
X4050944Y1715973D01*
X4048963Y1715922D01*
X4046372Y1717090D01*
X4043019Y1719376D01*
X4038904Y1722932D01*
X4033926Y1727758D01*
X4021074Y1741474D01*
X4010151Y1753717D01*
X3996994Y1769516D01*
X3981805Y1788617D01*
X3965498Y1809953D01*
X3949039Y1832305D01*
X3933190Y1854504D01*
X3917137Y1877974D01*
X3898392Y1906828D01*
X3883609Y1931060D01*
X3878173Y1940560D01*
X3874363Y1947875D01*
X3872331Y1952650D01*
X3872077Y1953971D01*
X3716892Y1953971D01*
X3694937Y1943862D01*
X3665321Y1930857D01*
X3546043Y1880463D01*
X3431946Y1903425D01*
X3402736Y1909825D01*
X3374694Y1916531D01*
X3349193Y1923237D01*
X3327603Y1929587D01*
X3318611Y1932482D01*
X3311144Y1935175D01*
X3303015Y1938680D01*
X3297224Y1941982D01*
X3291992Y1945386D01*
X3287522Y1948891D01*
X3283864Y1952294D01*
X3281121Y1955596D01*
X3279394Y1958644D01*
X3278784Y1961337D01*
X3193034Y1961337D01*
X3185058Y1953209D01*
X3175812Y1943150D01*
X3166364Y1932381D01*
X3156966Y1921154D01*
X3147720Y1909622D01*
X3134206Y1891741D01*
X3182874Y1891741D01*
X3183686Y1895906D01*
X3185871Y1899310D01*
X3189122Y1901596D01*
X3193034Y1902460D01*
X3196945Y1902104D01*
X3200196Y1901139D01*
X3202381Y1899716D01*
X3203194Y1897989D01*
X3202381Y1895754D01*
X3200196Y1893011D01*
X3196945Y1890064D01*
X3193034Y1887270D01*
X3189122Y1885696D01*
X3185871Y1886000D01*
X3183686Y1888032D01*
X3182874Y1891741D01*
X3134206Y1891741D01*
X3126587Y1881073D01*
X3119374Y1870405D01*
X3113176Y1860397D01*
X3096412Y1831644D01*
X3088792Y1820316D01*
X3085287Y1815896D01*
X3081832Y1812188D01*
X3079198Y1809902D01*
X3223463Y1809902D01*
X3223768Y1813814D01*
X3224733Y1818386D01*
X3226308Y1823516D01*
X3228289Y1828952D01*
X3230778Y1834540D01*
X3233572Y1840128D01*
X3236722Y1845564D01*
X3240024Y1850694D01*
X3243427Y1855368D01*
X3246780Y1859330D01*
X3250082Y1862683D01*
X3253536Y1865375D01*
X3257194Y1867560D01*
X3261207Y1869135D01*
X3265678Y1870252D01*
X3270656Y1870913D01*
X3276295Y1871116D01*
X3282746Y1870913D01*
X3290011Y1870405D01*
X3302000Y1869033D01*
X3321151Y1865833D01*
X3345738Y1860804D01*
X3373678Y1854504D01*
X3402837Y1847342D01*
X3434791Y1838807D01*
X3453993Y1833067D01*
X3470757Y1827428D01*
X3485134Y1821891D01*
X3497173Y1816455D01*
X3507028Y1811020D01*
X3514699Y1805584D01*
X3517747Y1802841D01*
X3520287Y1800047D01*
X3523081Y1795983D01*
X3523966Y1794154D01*
X3600399Y1794154D01*
X3601008Y1807819D01*
X3602126Y1814423D01*
X3603244Y1818132D01*
X3604717Y1821789D01*
X3606546Y1825345D01*
X3608832Y1828850D01*
X3611575Y1832305D01*
X3614775Y1835759D01*
X3618534Y1839264D01*
X3622852Y1842820D01*
X3627780Y1846427D01*
X3633368Y1850186D01*
X3646525Y1858111D01*
X3662730Y1866849D01*
X3682136Y1876552D01*
X3697478Y1883714D01*
X3712921Y1890420D01*
X3728059Y1896516D01*
X3742486Y1901799D01*
X3755796Y1906219D01*
X3767531Y1909521D01*
X3777234Y1911654D01*
X3781247Y1912213D01*
X3784549Y1912416D01*
X3789730Y1912213D01*
X3794760Y1911553D01*
X3799789Y1910384D01*
X3804818Y1908708D01*
X3809847Y1906524D01*
X3814927Y1903730D01*
X3820109Y1900428D01*
X3825392Y1896516D01*
X3830828Y1891995D01*
X3836415Y1886915D01*
X3842258Y1881124D01*
X3850843Y1871929D01*
X3863035Y1857349D01*
X3878021Y1838248D01*
X3894937Y1815846D01*
X3912768Y1791411D01*
X3934968Y1759864D01*
X3953967Y1731619D01*
X3963365Y1717141D01*
X3971645Y1703832D01*
X3978859Y1691690D01*
X3985056Y1680514D01*
X3990289Y1670304D01*
X3994607Y1660906D01*
X3998061Y1652270D01*
X4000652Y1644294D01*
X4002481Y1636928D01*
X4003497Y1630019D01*
X4003852Y1623466D01*
X4003649Y1617522D01*
X4003040Y1611630D01*
X4002024Y1605838D01*
X4000601Y1600098D01*
X3998722Y1594408D01*
X3996385Y1588668D01*
X3993591Y1582928D01*
X3990340Y1577187D01*
X3986631Y1571345D01*
X3982415Y1565402D01*
X3977690Y1559407D01*
X3972458Y1553210D01*
X3966413Y1546961D01*
X3958844Y1540103D01*
X3949903Y1532839D01*
X3939895Y1525219D01*
X3928973Y1517497D01*
X3917391Y1509776D01*
X3905300Y1502156D01*
X3893007Y1494891D01*
X3880662Y1488084D01*
X3868572Y1481836D01*
X3856736Y1476197D01*
X3845001Y1470964D01*
X3833266Y1466088D01*
X3821684Y1461566D01*
X3810152Y1457452D01*
X3798773Y1453743D01*
X3787495Y1450390D01*
X3776421Y1447444D01*
X3765499Y1444955D01*
X3754780Y1442872D01*
X3744315Y1441196D01*
X3734104Y1439926D01*
X3672078Y1433626D01*
X3640734Y1567840D01*
X3624783Y1639214D01*
X3613861Y1690725D01*
X3609644Y1711706D01*
X3606037Y1731010D01*
X3604006Y1744421D01*
X3602431Y1757832D01*
X3601262Y1770837D01*
X3600602Y1783029D01*
X3600399Y1794154D01*
X3523966Y1794154D01*
X3528161Y1783232D01*
X3533495Y1766366D01*
X3539794Y1744522D01*
X3546805Y1718411D01*
X3554323Y1688846D01*
X3562146Y1656638D01*
X3570071Y1622552D01*
X3580333Y1576019D01*
X3594608Y1507998D01*
X3597808Y1490980D01*
X3600297Y1476451D01*
X3602075Y1464157D01*
X3603244Y1453946D01*
X3603701Y1445615D01*
X3603599Y1438960D01*
X3602888Y1433779D01*
X3601618Y1429816D01*
X3599789Y1426921D01*
X3597452Y1424838D01*
X3593693Y1423060D01*
X3588359Y1421688D01*
X3581704Y1420622D01*
X3574034Y1420012D01*
X3565499Y1419758D01*
X3556457Y1419961D01*
X3547059Y1420571D01*
X3537610Y1421587D01*
X3524656Y1423670D01*
X3511194Y1426362D01*
X3498037Y1429461D01*
X3485743Y1432864D01*
X3475126Y1436319D01*
X3466795Y1439722D01*
X3462020Y1442161D01*
X3457752Y1444904D01*
X3453942Y1447952D01*
X3450590Y1451406D01*
X3447643Y1455369D01*
X3445001Y1459992D01*
X3442715Y1465275D01*
X3440633Y1471422D01*
X3438753Y1478483D01*
X3436975Y1486509D01*
X3431794Y1517904D01*
X3429152Y1530756D01*
X3425951Y1544167D01*
X3422345Y1557782D01*
X3418433Y1571193D01*
X3414268Y1583893D01*
X3410102Y1595577D01*
X3405886Y1605788D01*
X3401110Y1615897D01*
X3395268Y1627225D01*
X3388563Y1639468D01*
X3381197Y1652168D01*
X3373424Y1664919D01*
X3365449Y1677416D01*
X3357575Y1689252D01*
X3349955Y1700022D01*
X3341268Y1711147D01*
X3331870Y1721866D01*
X3321913Y1732076D01*
X3311499Y1741627D01*
X3306216Y1746148D01*
X3295446Y1754479D01*
X3284677Y1761896D01*
X3279292Y1765198D01*
X3255975Y1777593D01*
X3250234Y1781048D01*
X3240176Y1788007D01*
X3235909Y1791462D01*
X3232251Y1794814D01*
X3229152Y1798116D01*
X3226714Y1801317D01*
X3224936Y1804365D01*
X3223818Y1807210D01*
X3223463Y1809902D01*
X3079198Y1809902D01*
X3074822Y1806752D01*
X3071114Y1804873D01*
X3067151Y1803450D01*
X3062833Y1802434D01*
X3058058Y1801774D01*
X3046984Y1801164D01*
X3036112Y1801012D01*
X3026156Y1800148D01*
X3014675Y1798472D01*
X3002076Y1796186D01*
X2988818Y1793239D01*
X2975203Y1789785D01*
X2961741Y1785924D01*
X2948736Y1781759D01*
X2936443Y1777187D01*
X2924454Y1772208D01*
X2912922Y1766722D01*
X2901746Y1760677D01*
X2890774Y1754022D01*
X2879953Y1746757D01*
X2869285Y1738731D01*
X2858566Y1729993D01*
X2847797Y1720443D01*
X2836875Y1709978D01*
X2825750Y1698650D01*
X2815437Y1687474D01*
X2806141Y1676755D01*
X2797860Y1666290D01*
X2790494Y1656029D01*
X2783992Y1645818D01*
X2778201Y1635556D01*
X2773121Y1625092D01*
X2768650Y1614373D01*
X2764739Y1603248D01*
X2761335Y1591767D01*
X2758236Y1579219D01*
X2755392Y1565554D01*
X2752852Y1551279D01*
X2750718Y1536750D01*
X2748991Y1522476D01*
X2747822Y1508810D01*
X2747162Y1496263D01*
X2747213Y1484731D01*
X2748026Y1472031D01*
X2749651Y1458112D01*
X2751937Y1443431D01*
X2754833Y1428445D01*
X2758236Y1413611D01*
X2762097Y1399336D01*
X2766263Y1386027D01*
X2770479Y1374749D01*
X2775000Y1364234D01*
X2780182Y1353515D01*
X2785973Y1342847D01*
X2792222Y1332179D01*
X2798826Y1321765D01*
X2805836Y1311706D01*
X2813050Y1302054D01*
X2820466Y1293012D01*
X2828036Y1284630D01*
X2836214Y1276350D01*
X2855315Y1258214D01*
X2874873Y1240739D01*
X2892602Y1226007D01*
X2899968Y1220317D01*
X2932633Y1197356D01*
X2916986Y1100683D01*
X2913481Y1077772D01*
X2911297Y1059992D01*
X2910433Y1046378D01*
X2910535Y1040790D01*
X2910941Y1035913D01*
X2911754Y1031595D01*
X2912872Y1027734D01*
X2914396Y1024178D01*
X2916275Y1020876D01*
X2918510Y1017625D01*
X2924200Y1010869D01*
X2927045Y1008024D01*
X2930398Y1005078D01*
X2938526Y999185D01*
X2947974Y993444D01*
X2958287Y988161D01*
X2968853Y983691D01*
X2974086Y981811D01*
X2987040Y978255D01*
X3003905Y974598D01*
X3020618Y971854D01*
X3035198Y970330D01*
X3040989Y970127D01*
X3046831Y970330D01*
X3053740Y970940D01*
X3069742Y973124D01*
X3086862Y976376D01*
X3095244Y978306D01*
X3103168Y980389D01*
X3109518Y982319D01*
X3115360Y984402D01*
X3120745Y986739D01*
X3125724Y989279D01*
X3130245Y992124D01*
X3134410Y995222D01*
X3138170Y998575D01*
X3141624Y1002284D01*
X3144723Y1006348D01*
X3147568Y1010767D01*
X3150158Y1015542D01*
X3152495Y1020724D01*
X3155645Y1029868D01*
X3158134Y1040282D01*
X3159150Y1045768D01*
X3160522Y1057046D01*
X3161131Y1068070D01*
X3161080Y1073302D01*
X3160268Y1082903D01*
X3155543Y1114907D01*
X3325164Y1107084D01*
X3360674Y1105052D01*
X3392017Y1102817D01*
X3417671Y1100632D01*
X3436213Y1098550D01*
X3442360Y1097584D01*
X3446170Y1096670D01*
X3447135Y1096264D01*
X3449015Y1094079D01*
X3450793Y1090015D01*
X3452368Y1084376D01*
X3453790Y1077366D01*
X3454958Y1069187D01*
X3455822Y1060094D01*
X3456381Y1050290D01*
X3456686Y1032916D01*
X3457701Y1017727D01*
X3459581Y1002030D01*
X3462223Y986637D01*
X3465423Y972362D01*
X3469132Y960018D01*
X3471062Y954836D01*
X3474872Y946708D01*
X3479037Y939393D01*
X3483660Y932891D01*
X3488588Y927252D01*
X3493922Y922477D01*
X3499612Y918565D01*
X3505606Y915568D01*
X3511905Y913485D01*
X3518509Y912266D01*
X3527348Y911250D01*
X3538016Y910539D01*
X3550107Y910082D01*
X3563264Y909929D01*
X3577031Y910031D01*
X3591153Y910437D01*
X3605123Y911148D01*
X3624986Y912621D01*
X3641090Y914349D01*
X3647998Y915416D01*
X3654196Y916635D01*
X3659784Y918057D01*
X3664864Y919683D01*
X3669537Y921613D01*
X3673856Y923747D01*
X3677869Y926287D01*
X3681780Y929081D01*
X3685540Y932332D01*
X3693160Y940003D01*
X3700475Y948436D01*
X3706215Y955751D01*
X3708654Y959256D01*
X3710787Y962761D01*
X3712667Y966368D01*
X3714292Y970127D01*
X3715715Y974090D01*
X3716883Y978306D01*
X3717848Y982929D01*
X3718610Y988009D01*
X3719576Y999693D01*
X3719880Y1013968D01*
X3719677Y1031443D01*
X3719017Y1052677D01*
X3715004Y1156157D01*
X3792118Y1201064D01*
X3817518Y1217066D01*
X3829100Y1224737D01*
X3839464Y1231950D01*
X3848303Y1238453D01*
X3855262Y1244041D01*
X3859987Y1248410D01*
X3865321Y1254048D01*
X3868928Y1258316D01*
X3870858Y1261262D01*
X3870909Y1262989D01*
X3869080Y1263650D01*
X3865219Y1263345D01*
X3859326Y1262278D01*
X3848252Y1259687D01*
X3840886Y1257503D01*
X3826916Y1252728D01*
X3804412Y1244244D01*
X3786174Y1236878D01*
X3773982Y1231696D01*
X3762095Y1226362D01*
X3750360Y1220470D01*
X3738879Y1214069D01*
X3728008Y1207414D01*
X3718102Y1200658D01*
X3709365Y1194054D01*
X3702151Y1187754D01*
X3699205Y1184808D01*
X3694836Y1179372D01*
X3693160Y1176477D01*
X3689654Y1168603D01*
X3686149Y1158240D01*
X3682644Y1145895D01*
X3679291Y1131925D01*
X3676142Y1116787D01*
X3673348Y1100886D01*
X3671011Y1084630D01*
X3669029Y1068374D01*
X3666744Y1052423D01*
X3664051Y1037285D01*
X3661105Y1023213D01*
X3657955Y1010666D01*
X3654704Y999947D01*
X3651453Y991412D01*
X3649827Y988110D01*
X3648252Y985469D01*
X3646728Y983589D01*
X3642969Y980643D01*
X3637838Y977798D01*
X3631539Y975207D01*
X3624275Y972870D01*
X3616350Y970838D01*
X3607917Y969213D01*
X3599281Y968044D01*
X3590645Y967435D01*
X3583889Y967282D01*
X3577437Y967435D01*
X3571240Y967841D01*
X3565347Y968552D01*
X3559759Y969518D01*
X3554476Y970737D01*
X3549497Y972210D01*
X3544773Y973988D01*
X3540404Y976020D01*
X3536340Y978357D01*
X3532581Y980948D01*
X3529126Y983742D01*
X3524961Y988161D01*
X3520846Y993698D01*
X3516833Y1000150D01*
X3513023Y1007364D01*
X3509568Y1015085D01*
X3506520Y1023061D01*
X3504082Y1031087D01*
X3500628Y1046784D01*
X3496614Y1062888D01*
X3492042Y1078026D01*
X3487369Y1090422D01*
X3485184Y1094943D01*
X3483406Y1097686D01*
X3480917Y1100632D01*
X3477818Y1103782D01*
X3474110Y1107135D01*
X3469894Y1110538D01*
X3460140Y1117447D01*
X3449116Y1124204D01*
X3437331Y1130401D01*
X3427476Y1134770D01*
X3418586Y1138021D01*
X3408324Y1141222D01*
X3396894Y1144320D01*
X3384550Y1147318D01*
X3371545Y1150112D01*
X3358134Y1152702D01*
X3344621Y1154938D01*
X3331159Y1156868D01*
X3318052Y1158392D01*
X3303828Y1159560D01*
X3288080Y1160576D01*
X3272536Y1161237D01*
X3257702Y1161542D01*
X3243935Y1161542D01*
X3231692Y1161237D01*
X3221329Y1160576D01*
X3213354Y1159560D01*
X3210356Y1158951D01*
X3208020Y1158189D01*
X3202178Y1155344D01*
X3194913Y1150874D01*
X3186379Y1144930D01*
X3176828Y1137666D01*
X3166465Y1129233D01*
X3155442Y1119835D01*
X3143961Y1109624D01*
X3132277Y1098753D01*
X3093466Y1060500D01*
X3079953Y1047800D01*
X3067456Y1036472D01*
X3056229Y1026820D01*
X3046730Y1019149D01*
X3039160Y1013764D01*
X3033928Y1010919D01*
X3032302Y1010564D01*
X3029254Y1011072D01*
X3025495Y1012545D01*
X3021076Y1014831D01*
X3016148Y1017879D01*
X3010966Y1021537D01*
X3005582Y1025804D01*
X3000197Y1030427D01*
X2991154Y1039368D01*
X2984703Y1046937D01*
X2982010Y1050747D01*
X2979674Y1054608D01*
X2977642Y1058722D01*
X2975914Y1063091D01*
X2974492Y1067816D01*
X2973273Y1072946D01*
X2972308Y1078585D01*
X2970936Y1091692D01*
X2970276Y1107694D01*
X2969818Y1141222D01*
X2969158Y1155090D01*
X2968091Y1168501D01*
X2966618Y1181150D01*
X2964942Y1192631D01*
X2962960Y1202588D01*
X2960776Y1210665D01*
X2958439Y1216456D01*
X2954883Y1222197D01*
X2949346Y1229969D01*
X2941980Y1239520D01*
X2923133Y1262380D01*
X2900680Y1287983D01*
X2878074Y1312773D01*
X2867964Y1324610D01*
X2858516Y1336395D01*
X2849727Y1348079D01*
X2841701Y1359611D01*
X2834436Y1370838D01*
X2828036Y1381709D01*
X2822498Y1392224D01*
X2817876Y1402232D01*
X2814269Y1411681D01*
X2810967Y1422654D01*
X2807868Y1435201D01*
X2805074Y1448917D01*
X2802636Y1463395D01*
X2800604Y1478127D01*
X2799080Y1492707D01*
X2798114Y1506677D01*
X2797759Y1519631D01*
X2798064Y1532737D01*
X2798978Y1545945D01*
X2800451Y1558950D01*
X2802382Y1571498D01*
X2804769Y1583334D01*
X2807563Y1594104D01*
X2810713Y1603654D01*
X2814116Y1611579D01*
X2819400Y1621231D01*
X2826004Y1631848D01*
X2833522Y1642922D01*
X2841498Y1653844D01*
X2849524Y1664004D01*
X2857195Y1672793D01*
X2865272Y1680921D01*
X2874416Y1689252D01*
X2884119Y1697329D01*
X2893822Y1704695D01*
X2903067Y1711045D01*
X2911297Y1715871D01*
X2917190Y1718716D01*
X2923438Y1721408D01*
X2929890Y1723847D01*
X2936290Y1725980D01*
X2942539Y1727707D01*
X2948381Y1729028D01*
X2953613Y1729892D01*
X2960420Y1730349D01*
X2967126Y1731822D01*
X2976168Y1734616D01*
X2987192Y1738579D01*
X2999790Y1743557D01*
X3013608Y1749399D01*
X3028238Y1756003D01*
X3043326Y1763166D01*
X3078429Y1780489D01*
X3092907Y1787194D01*
X3104946Y1792122D01*
X3110179Y1794002D01*
X3115106Y1795475D01*
X3119678Y1796542D01*
X3124047Y1797304D01*
X3128213Y1797710D01*
X3132328Y1797761D01*
X3136392Y1797507D01*
X3140557Y1796948D01*
X3149346Y1795018D01*
X3159252Y1792071D01*
X3169259Y1788668D01*
X3179216Y1784654D01*
X3190341Y1779524D01*
X3202330Y1773478D01*
X3214827Y1766773D01*
X3227374Y1759610D01*
X3239617Y1752142D01*
X3251200Y1744573D01*
X3261867Y1737106D01*
X3271875Y1729333D01*
X3281476Y1721205D01*
X3290570Y1712620D01*
X3299256Y1703628D01*
X3307587Y1694129D01*
X3315563Y1684172D01*
X3323183Y1673606D01*
X3330549Y1662480D01*
X3337610Y1650695D01*
X3343046Y1640890D01*
X3347313Y1632457D01*
X3356559Y1612138D01*
X3366566Y1588058D01*
X3376828Y1561338D01*
X3387039Y1533042D01*
X3396742Y1504238D01*
X3405479Y1475943D01*
X3440734Y1353870D01*
X3587851Y1361744D01*
X3615842Y1363776D01*
X3644392Y1366215D01*
X3672586Y1368958D01*
X3699713Y1371955D01*
X3724859Y1375105D01*
X3747211Y1378305D01*
X3765956Y1381506D01*
X3776218Y1383538D01*
X3802430Y1389634D01*
X3815791Y1393088D01*
X3841597Y1400505D01*
X3853637Y1404264D01*
X3864711Y1408023D01*
X3874668Y1411681D01*
X3883151Y1415186D01*
X3891279Y1418996D01*
X3900932Y1424076D01*
X3911396Y1430070D01*
X3922318Y1436674D01*
X3944061Y1451051D01*
X3954322Y1458366D01*
X3963670Y1465478D01*
X3970680Y1471269D01*
X3976827Y1476959D01*
X3983532Y1483766D01*
X3998264Y1500124D01*
X4006138Y1509420D01*
X4022191Y1529588D01*
X4034129Y1545539D01*
X4049268Y1567129D01*
X4066082Y1592783D01*
X4075277Y1606245D01*
X4083558Y1617776D01*
X4090822Y1627225D01*
X4096816Y1634337D01*
X4099255Y1636928D01*
X4102963Y1640027D01*
X4104182Y1640433D01*
X4104944Y1640078D01*
X4105198Y1638960D01*
X4104894Y1636318D01*
X4102811Y1628038D01*
X4098899Y1616354D01*
X4093464Y1602130D01*
X4086758Y1586026D01*
X4079138Y1568856D01*
X4072534Y1554784D01*
X4061053Y1532077D01*
X4048353Y1508455D01*
X4035450Y1485798D01*
X4023309Y1465834D01*
X4017873Y1457452D01*
X4012031Y1449120D01*
X4005072Y1440230D01*
X3997553Y1431798D01*
X3989324Y1423670D01*
X3980230Y1415796D01*
X3970223Y1408023D01*
X3959199Y1400352D01*
X3946956Y1392631D01*
X3933393Y1384757D01*
X3918458Y1376680D01*
X3904589Y1369568D01*
X3892702Y1363878D01*
X3880561Y1358442D01*
X3868267Y1353261D01*
X3855872Y1348384D01*
X3843426Y1343761D01*
X3831082Y1339545D01*
X3818839Y1335684D01*
X3806799Y1332230D01*
X3795115Y1329182D01*
X3783736Y1326591D01*
X3772865Y1324457D01*
X3762806Y1322882D01*
X3752392Y1321562D01*
X3729024Y1319428D01*
X3703370Y1317904D01*
X3676853Y1317091D01*
X3650843Y1317040D01*
X3626865Y1317752D01*
X3601415Y1319479D01*
X3567633Y1322374D01*
X3542334Y1325016D01*
X3520694Y1327658D01*
X3496056Y1331518D01*
X3488436Y1332382D01*
X3481933Y1332738D01*
X3476498Y1332534D01*
X3472281Y1331772D01*
X3469182Y1330502D01*
X3467303Y1328674D01*
X3466693Y1326337D01*
X3467455Y1323949D01*
X3469690Y1321308D01*
X3473196Y1318412D01*
X3477869Y1315466D01*
X3483457Y1312519D01*
X3489909Y1309624D01*
X3497072Y1306880D01*
X3508044Y1303528D01*
X3516020Y1301597D01*
X3536137Y1297686D01*
X3560216Y1293926D01*
X3592982Y1289862D01*
X3612642Y1287983D01*
X3624478Y1287068D01*
X3636010Y1286510D01*
X3661054Y1286103D01*
X3687572Y1286611D01*
X3700932Y1287170D01*
X3727196Y1288948D01*
X3739692Y1290116D01*
X3751630Y1291488D01*
X3762756Y1293063D01*
X3773119Y1294790D01*
X3784041Y1297076D01*
X3795776Y1299819D01*
X3820922Y1306677D01*
X3833977Y1310640D01*
X3853687Y1317091D01*
X3879189Y1326388D01*
X3891229Y1331214D01*
X3902557Y1336040D01*
X3913022Y1340815D01*
X3924604Y1346606D01*
X3936085Y1352702D01*
X3947414Y1359204D01*
X3958590Y1366062D01*
X3969613Y1373174D01*
X3980383Y1380591D01*
X3990898Y1388313D01*
X4001109Y1396238D01*
X4011015Y1404366D01*
X4020565Y1412697D01*
X4029710Y1421180D01*
X4038396Y1429816D01*
X4047236Y1439062D01*
X4064762Y1458976D01*
X4081170Y1479346D01*
X4088587Y1489202D01*
X4095242Y1498650D01*
X4101084Y1507388D01*
X4105859Y1515313D01*
X4109465Y1522171D01*
X4114342Y1533245D01*
X4118101Y1543913D01*
X4120845Y1554734D01*
X4122572Y1566164D01*
X4123131Y1572209D01*
X4123436Y1578660D01*
X4123385Y1592732D01*
X4122521Y1608836D01*
X4120845Y1627479D01*
X4119575Y1639011D01*
X4116019Y1664004D01*
X4111447Y1689811D01*
X4106265Y1714601D01*
X4100880Y1736293D01*
X4098188Y1745386D01*
X4095038Y1754378D01*
X4090924Y1764487D01*
X4085996Y1775510D01*
X4080357Y1787194D01*
X4074109Y1799285D01*
X4067403Y1811578D01*
X4060393Y1823821D01*
X4053179Y1835759D01*
X4045864Y1847138D01*
X4038600Y1857806D01*
X4032148Y1866646D01*
X4017010Y1886051D01*
X3999636Y1906778D01*
X3985818Y1922475D01*
X3967022Y1942846D01*
X3957777Y1952396D01*
X3944416Y1965604D01*
X3936034Y1973478D01*
X3925824Y1982520D01*
X3914800Y1991715D01*
X3903116Y2000910D01*
X3891127Y2009952D01*
X3878986Y2018639D01*
X3866946Y2026869D01*
X3855262Y2034438D01*
X3844086Y2041194D01*
X3833774Y2046935D01*
X3824478Y2051557D01*
X3816096Y2055266D01*
X3807460Y2058670D01*
X3798519Y2061819D01*
X3789121Y2064816D01*
X3779316Y2067560D01*
X3768953Y2070100D01*
X3757929Y2072436D01*
X3733800Y2076704D01*
X3706266Y2080412D01*
X3674719Y2083714D01*
X3603599Y2089404D01*
X3573373Y2091537D01*
X3550056Y2092909D01*
G37*
G36*
X4211878Y1709877D02*
G01*
X4204817Y1709623D01*
X4197858Y1708912D01*
X4191304Y1707794D01*
X4185259Y1706270D01*
X4179874Y1704441D01*
X4175404Y1702307D01*
X4171950Y1700022D01*
X4169664Y1697532D01*
X4168140Y1694180D01*
X4166615Y1689506D01*
X4165142Y1683613D01*
X4163822Y1676755D01*
X4162653Y1669186D01*
X4161688Y1661109D01*
X4160012Y1635709D01*
X4159250Y1626870D01*
X4156913Y1609496D01*
X4153865Y1594307D01*
X4152188Y1588109D01*
X4150461Y1583182D01*
X4147972Y1577136D01*
X4146397Y1572717D01*
X4145737Y1569821D01*
X4146143Y1568500D01*
X4147718Y1568653D01*
X4150461Y1570228D01*
X4159910Y1577543D01*
X4165650Y1582928D01*
X4172762Y1590548D01*
X4180738Y1599946D01*
X4189222Y1610563D01*
X4197654Y1621891D01*
X4205681Y1633270D01*
X4213301Y1644853D01*
X4220616Y1656435D01*
X4227271Y1667560D01*
X4232910Y1677568D01*
X4237278Y1686001D01*
X4239971Y1692148D01*
X4241495Y1697126D01*
X4241901Y1701139D01*
X4240987Y1704238D01*
X4238701Y1706524D01*
X4234789Y1708150D01*
X4229100Y1709166D01*
X4221530Y1709724D01*
G37*
G36*
X2911195Y1648307D02*
G01*
X2903474Y1647545D01*
X2895193Y1646174D01*
X2887268Y1644294D01*
X2880715Y1642160D01*
X2877870Y1640586D01*
X2874822Y1638147D01*
X2871673Y1634947D01*
X2868574Y1631137D01*
X2865526Y1626768D01*
X2862681Y1622094D01*
X2860141Y1617167D01*
X2858008Y1612087D01*
X2855925Y1605534D01*
X2854604Y1598879D01*
X2854045Y1592021D01*
X2854299Y1584858D01*
X2855315Y1577390D01*
X2857144Y1569516D01*
X2859786Y1561185D01*
X2863189Y1552295D01*
X2867304Y1543151D01*
X2871419Y1535633D01*
X2875635Y1529537D01*
X2880106Y1524812D01*
X2884932Y1521358D01*
X2890316Y1519021D01*
X2896311Y1517751D01*
X2903118Y1517345D01*
X2908706Y1517751D01*
X2914396Y1519021D01*
X2920085Y1521002D01*
X2925673Y1523695D01*
X2931007Y1526997D01*
X2935935Y1530807D01*
X2940354Y1535125D01*
X2944164Y1539849D01*
X2947314Y1544777D01*
X2950260Y1550263D01*
X2952953Y1556004D01*
X2955290Y1561896D01*
X2957220Y1567738D01*
X2958693Y1573326D01*
X2959608Y1578559D01*
X2959912Y1583182D01*
X2959608Y1587855D01*
X2958693Y1593088D01*
X2957220Y1598676D01*
X2955290Y1604518D01*
X2952953Y1610410D01*
X2950260Y1616151D01*
X2947314Y1621586D01*
X2944164Y1626565D01*
X2940608Y1631086D01*
X2936646Y1635251D01*
X2932379Y1639011D01*
X2927959Y1642211D01*
X2923489Y1644853D01*
X2919120Y1646834D01*
X2915005Y1648002D01*
G37*
G36*
X3137763Y1638960D02*
G01*
X3134207Y1638554D01*
X3130092Y1637334D01*
X3125520Y1635455D01*
X3120745Y1632966D01*
X3115818Y1629968D01*
X3110941Y1626565D01*
X3106216Y1622755D01*
X3101797Y1618691D01*
X3097733Y1614170D01*
X3093923Y1609191D01*
X3090519Y1603908D01*
X3087522Y1598422D01*
X3085033Y1592935D01*
X3083153Y1587601D01*
X3081985Y1582623D01*
X3081528Y1578152D01*
X3081985Y1573631D01*
X3083153Y1568653D01*
X3085033Y1563370D01*
X3087522Y1557883D01*
X3090519Y1552397D01*
X3093923Y1547063D01*
X3097733Y1542084D01*
X3101797Y1537614D01*
X3106318Y1533499D01*
X3111296Y1529740D01*
X3116630Y1526286D01*
X3122066Y1523288D01*
X3127552Y1520799D01*
X3132886Y1518920D01*
X3137865Y1517751D01*
X3142335Y1517345D01*
X3146856Y1517751D01*
X3151835Y1518920D01*
X3157169Y1520799D01*
X3162604Y1523288D01*
X3168091Y1526286D01*
X3173425Y1529740D01*
X3178403Y1533499D01*
X3182874Y1537614D01*
X3186988Y1541983D01*
X3190748Y1546707D01*
X3194202Y1551584D01*
X3197199Y1556512D01*
X3199688Y1561338D01*
X3201568Y1565859D01*
X3202736Y1569974D01*
X3203194Y1573530D01*
X3202686Y1577187D01*
X3201212Y1581556D01*
X3198926Y1586534D01*
X3195878Y1591919D01*
X3192170Y1597507D01*
X3187954Y1603197D01*
X3183280Y1608734D01*
X3178302Y1614068D01*
X3172968Y1619046D01*
X3167380Y1623720D01*
X3161741Y1627936D01*
X3156102Y1631645D01*
X3150768Y1634693D01*
X3145790Y1636979D01*
X3141421Y1638452D01*
G37*
G36*
X2931109Y1466646D02*
G01*
X2922625Y1465529D01*
X2915666Y1462481D01*
X2910992Y1457909D01*
X2909265Y1452372D01*
X2909925Y1448917D01*
X2911805Y1444650D01*
X2914853Y1439672D01*
X2918866Y1434185D01*
X2923692Y1428343D01*
X2929229Y1422349D01*
X2935376Y1416354D01*
X2946552Y1406753D01*
X2956306Y1399082D01*
X2966415Y1391716D01*
X2976270Y1384960D01*
X2985363Y1379169D01*
X2993136Y1374749D01*
X2996387Y1373124D01*
X3002381Y1370787D01*
X3008223Y1369364D01*
X3013964Y1368856D01*
X3019806Y1369314D01*
X3025952Y1370787D01*
X3032455Y1373225D01*
X3039567Y1376730D01*
X3051505Y1383944D01*
X3060446Y1389938D01*
X3079292Y1403502D01*
X3095955Y1416710D01*
X3103880Y1423924D01*
X3108147Y1428496D01*
X3112008Y1433169D01*
X3115411Y1437792D01*
X3118205Y1442262D01*
X3120288Y1446428D01*
X3121609Y1450086D01*
X3122066Y1453235D01*
X3120644Y1458417D01*
X3116732Y1462684D01*
X3110890Y1465580D01*
X3103778Y1466646D01*
X3099409Y1466138D01*
X3094024Y1464665D01*
X3087776Y1462379D01*
X3080969Y1459331D01*
X3073755Y1455674D01*
X3066338Y1451457D01*
X3058922Y1446784D01*
X3051810Y1441805D01*
X3018129Y1416964D01*
X2985516Y1441805D01*
X2978556Y1446784D01*
X2971139Y1451457D01*
X2963621Y1455674D01*
X2956102Y1459331D01*
X2948889Y1462379D01*
X2942132Y1464665D01*
X2936138Y1466138D01*
G37*
G36*
X4095496Y1431391D02*
G01*
X4093311Y1430578D01*
X4091330Y1428292D01*
X4090263Y1426006D01*
X4089095Y1422501D01*
X4086707Y1412392D01*
X4084218Y1398727D01*
X4081830Y1382420D01*
X4079646Y1364234D01*
X4076344Y1330350D01*
X4074515Y1316075D01*
X4072382Y1302461D01*
X4070045Y1289964D01*
X4067505Y1278788D01*
X4064914Y1269441D01*
X4062323Y1262176D01*
X4061053Y1259484D01*
X4059783Y1257452D01*
X4056735Y1254099D01*
X4052773Y1251000D01*
X4047998Y1248105D01*
X4042562Y1245616D01*
X4036720Y1243533D01*
X4030624Y1241907D01*
X4024376Y1240840D01*
X4018178Y1240383D01*
X4008983Y1240536D01*
X3998112Y1241247D01*
X3986174Y1242364D01*
X3973829Y1243939D01*
X3961790Y1245819D01*
X3939946Y1250086D01*
X3931361Y1251407D01*
X3924757Y1251864D01*
X3919778Y1251458D01*
X3916324Y1250086D01*
X3914140Y1247698D01*
X3912971Y1244244D01*
X3912615Y1239723D01*
X3913022Y1236065D01*
X3914241Y1231798D01*
X3916121Y1227124D01*
X3918559Y1222248D01*
X3921607Y1217269D01*
X3925011Y1212291D01*
X3928821Y1207566D01*
X3932885Y1203147D01*
X3936441Y1199845D01*
X3940301Y1196898D01*
X3944365Y1194206D01*
X3948785Y1191818D01*
X3953459Y1189685D01*
X3958437Y1187856D01*
X3963670Y1186332D01*
X3969258Y1185062D01*
X3975150Y1184097D01*
X3987850Y1182979D01*
X3994708Y1182878D01*
X4006951Y1183436D01*
X4020413Y1185113D01*
X4034282Y1187754D01*
X4047896Y1191107D01*
X4060444Y1195019D01*
X4066082Y1197203D01*
X4071162Y1199438D01*
X4076039Y1201978D01*
X4081018Y1204925D01*
X4085996Y1208278D01*
X4090924Y1211986D01*
X4100525Y1220216D01*
X4109212Y1229055D01*
X4113072Y1233576D01*
X4116578Y1238097D01*
X4119575Y1242517D01*
X4122064Y1246835D01*
X4124604Y1252220D01*
X4126890Y1257757D01*
X4128820Y1263446D01*
X4130446Y1269339D01*
X4131767Y1275384D01*
X4132783Y1281684D01*
X4133494Y1288237D01*
X4133850Y1294993D01*
X4133951Y1302054D01*
X4133748Y1309370D01*
X4132376Y1325016D01*
X4130395Y1338783D01*
X4127652Y1353515D01*
X4124350Y1368450D01*
X4120642Y1382776D01*
X4116730Y1395730D01*
X4112869Y1406448D01*
X4109516Y1414119D01*
X4106367Y1420418D01*
X4103370Y1425244D01*
X4100576Y1428750D01*
X4097934Y1430782D01*
G37*
D10*
X2880613Y2575813D02*
G01*
X2874772Y2587244D01*
X2863341Y2598928D01*
X2851658Y2604770D01*
X2828543Y2604770D01*
X2817113Y2598928D01*
X2805429Y2587244D01*
X2799841Y2575813D01*
X2794000Y2558542D01*
X2794000Y2529586D01*
X2799841Y2512313D01*
X2805429Y2500629D01*
X2817113Y2489200D01*
X2828543Y2483357D01*
X2851658Y2483357D01*
X2863341Y2489200D01*
X2874772Y2500629D01*
X2880613Y2512313D01*
X2880613Y2529586D01*
X2851658Y2529586D02*
G01*
X2880613Y2529586D01*
X2918713Y2604770D02*
G01*
X2918713Y2483357D01*
X2918713Y2604770D02*
G01*
X2970529Y2604770D01*
X2988056Y2598928D01*
X2993643Y2593086D01*
X2999486Y2581655D01*
X2999486Y2569971D01*
X2993643Y2558542D01*
X2988056Y2552700D01*
X2970529Y2546857D01*
X2918713Y2546857D01*
X2959100Y2546857D02*
G01*
X2999486Y2483357D01*
X3037586Y2604770D02*
G01*
X3037586Y2483357D01*
X3037586Y2604770D02*
G01*
X3118358Y2483357D01*
X3118358Y2604770D02*
G01*
X3118358Y2483357D01*
X3156458Y2604770D02*
G01*
X3156458Y2483357D01*
X3156458Y2604770D02*
G01*
X3196843Y2604770D01*
X3214370Y2598928D01*
X3225800Y2587244D01*
X3231641Y2575813D01*
X3237229Y2558542D01*
X3237229Y2529586D01*
X3231641Y2512313D01*
X3225800Y2500629D01*
X3214370Y2489200D01*
X3196843Y2483357D01*
X3156458Y2483357D01*
X3314700Y2604770D02*
G01*
X3314700Y2483357D01*
X3314700Y2604770D02*
G01*
X3355086Y2604770D01*
X3372358Y2598928D01*
X3384041Y2587244D01*
X3389629Y2575813D01*
X3395472Y2558542D01*
X3395472Y2529586D01*
X3389629Y2512313D01*
X3384041Y2500629D01*
X3372358Y2489200D01*
X3355086Y2483357D01*
X3314700Y2483357D01*
X3485641Y2587244D02*
G01*
X3485641Y2483357D01*
X3433572Y2535428D02*
G01*
X3537458Y2535428D01*
X3594100Y2604770D02*
G01*
X3594100Y2483357D01*
X3594100Y2604770D02*
G01*
X3634486Y2604770D01*
X3651758Y2598928D01*
X3663441Y2587244D01*
X3669029Y2575813D01*
X3674872Y2558542D01*
X3674872Y2529586D01*
X3669029Y2512313D01*
X3663441Y2500629D01*
X3651758Y2489200D01*
X3634486Y2483357D01*
X3594100Y2483357D01*
X3712972Y2535428D02*
G01*
X3816858Y2535428D01*
X3911600Y2604770D02*
G01*
X3957827Y2483357D01*
X4004056Y2604770D02*
G01*
X3957827Y2483357D01*
X4128770Y2575813D02*
G01*
X4122927Y2587244D01*
X4111243Y2598928D01*
X4099813Y2604770D01*
X4076700Y2604770D01*
X4065270Y2598928D01*
X4053586Y2587244D01*
X4047743Y2575813D01*
X4042156Y2558542D01*
X4042156Y2529586D01*
X4047743Y2512313D01*
X4053586Y2500629D01*
X4065270Y2489200D01*
X4076700Y2483357D01*
X4099813Y2483357D01*
X4111243Y2489200D01*
X4122927Y2500629D01*
X4128770Y2512313D01*
X4253229Y2575813D02*
G01*
X4247641Y2587244D01*
X4235958Y2598928D01*
X4224527Y2604770D01*
X4201413Y2604770D01*
X4189729Y2598928D01*
X4178300Y2587244D01*
X4172458Y2575813D01*
X4166870Y2558542D01*
X4166870Y2529586D01*
X4172458Y2512313D01*
X4178300Y2500629D01*
X4189729Y2489200D01*
X4201413Y2483357D01*
X4224527Y2483357D01*
X4235958Y2489200D01*
X4247641Y2500629D01*
X4253229Y2512313D01*
X3158743Y-3860037D02*
G01*
X3158743Y-4007865D01*
X3149600Y-4035552D01*
X3140456Y-4044950D01*
X3121913Y-4054094D01*
X3094227Y-4054094D01*
X3075686Y-4044950D01*
X3158743Y-3887723D02*
G01*
X3140456Y-3869436D01*
X3121913Y-3860037D01*
X3094227Y-3860037D01*
X3075686Y-3869436D01*
X3057143Y-3887723D01*
X3048000Y-3915410D01*
X3048000Y-3933952D01*
X3057143Y-3961637D01*
X3075686Y-3980179D01*
X3094227Y-3989323D01*
X3121913Y-3989323D01*
X3140456Y-3980179D01*
X3158743Y-3961637D01*
X3219704Y-3795521D02*
G01*
X3229102Y-3804665D01*
X3238245Y-3795521D01*
X3229102Y-3786123D01*
X3219704Y-3795521D01*
X3229102Y-3860037D02*
G01*
X3229102Y-3989323D01*
X3326891Y-3795521D02*
G01*
X3326891Y-3952494D01*
X3336290Y-3980179D01*
X3354577Y-3989323D01*
X3373120Y-3989323D01*
X3299206Y-3860037D02*
G01*
X3363975Y-3860037D01*
X3434079Y-3795521D02*
G01*
X3434079Y-3989323D01*
X3434079Y-3897121D02*
G01*
X3461765Y-3869436D01*
X3480308Y-3860037D01*
X3507993Y-3860037D01*
X3526536Y-3869436D01*
X3535679Y-3897121D01*
X3535679Y-3989323D01*
X3596640Y-3860037D02*
G01*
X3596640Y-3952494D01*
X3605784Y-3980179D01*
X3624325Y-3989323D01*
X3652011Y-3989323D01*
X3670554Y-3980179D01*
X3698240Y-3952494D01*
X3698240Y-3860037D02*
G01*
X3698240Y-3989323D01*
X3759200Y-3795521D02*
G01*
X3759200Y-3989323D01*
X3759200Y-3887723D02*
G01*
X3777741Y-3869436D01*
X3796029Y-3860037D01*
X3823970Y-3860037D01*
X3842258Y-3869436D01*
X3860800Y-3887723D01*
X3869943Y-3915410D01*
X3869943Y-3933952D01*
X3860800Y-3961637D01*
X3842258Y-3980179D01*
X3823970Y-3989323D01*
X3796029Y-3989323D01*
X3777741Y-3980179D01*
X3759200Y-3961637D01*
X3940302Y-3943350D02*
G01*
X3930904Y-3952494D01*
X3940302Y-3961637D01*
X3949445Y-3952494D01*
X3940302Y-3943350D01*
X4121150Y-3887723D02*
G01*
X4102861Y-3869436D01*
X4084320Y-3860037D01*
X4056634Y-3860037D01*
X4038091Y-3869436D01*
X4019550Y-3887723D01*
X4010406Y-3915410D01*
X4010406Y-3933952D01*
X4019550Y-3961637D01*
X4038091Y-3980179D01*
X4056634Y-3989323D01*
X4084320Y-3989323D01*
X4102861Y-3980179D01*
X4121150Y-3961637D01*
X4228338Y-3860037D02*
G01*
X4210050Y-3869436D01*
X4191508Y-3887723D01*
X4182109Y-3915410D01*
X4182109Y-3933952D01*
X4191508Y-3961637D01*
X4210050Y-3980179D01*
X4228338Y-3989323D01*
X4256024Y-3989323D01*
X4274565Y-3980179D01*
X4293108Y-3961637D01*
X4302252Y-3933952D01*
X4302252Y-3915410D01*
X4293108Y-3887723D01*
X4274565Y-3869436D01*
X4256024Y-3860037D01*
X4228338Y-3860037D01*
X4363211Y-3860037D02*
G01*
X4363211Y-3989323D01*
X4363211Y-3897121D02*
G01*
X4390897Y-3869436D01*
X4409440Y-3860037D01*
X4437125Y-3860037D01*
X4455668Y-3869436D01*
X4464811Y-3897121D01*
X4464811Y-3989323D01*
X4464811Y-3897121D02*
G01*
X4492497Y-3869436D01*
X4511040Y-3860037D01*
X4538725Y-3860037D01*
X4557268Y-3869436D01*
X4566411Y-3897121D01*
X4566411Y-3989323D01*
X4793741Y-3758437D02*
G01*
X4627372Y-4054094D01*
X4854702Y-3795521D02*
G01*
X4863845Y-3804665D01*
X4872990Y-3795521D01*
X4863845Y-3786123D01*
X4854702Y-3795521D01*
X4863845Y-3860037D02*
G01*
X4863845Y-3989323D01*
X4933950Y-3795521D02*
G01*
X4933950Y-3989323D01*
X4933950Y-3795521D02*
G01*
X5054091Y-3795521D01*
X4933950Y-3887723D02*
G01*
X5007863Y-3887723D01*
X5115052Y-3795521D02*
G01*
X5115052Y-3989323D01*
X5176011Y-3795521D02*
G01*
X5176011Y-3989323D01*
X5305297Y-3795521D02*
G01*
X5176011Y-3924807D01*
X5222240Y-3878579D02*
G01*
X5305297Y-3989323D01*
X5421629Y-3795521D02*
G01*
X5403341Y-3804665D01*
X5384800Y-3823207D01*
X5375656Y-3841750D01*
X5366258Y-3869436D01*
X5366258Y-3915410D01*
X5375656Y-3943350D01*
X5384800Y-3961637D01*
X5403341Y-3980179D01*
X5421629Y-3989323D01*
X5458713Y-3989323D01*
X5477256Y-3980179D01*
X5495543Y-3961637D01*
X5504941Y-3943350D01*
X5514086Y-3915410D01*
X5514086Y-3869436D01*
X5504941Y-3841750D01*
X5495543Y-3823207D01*
X5477256Y-3804665D01*
X5458713Y-3795521D01*
X5421629Y-3795521D01*
X5704331Y-3795521D02*
G01*
X5575045Y-3989323D01*
X5575045Y-3795521D02*
G01*
X5704331Y-3795521D01*
X5575045Y-3989323D02*
G01*
X5704331Y-3989323D01*
X5931661Y-3758437D02*
G01*
X5765291Y-4054094D01*
X6057138Y-3795521D02*
G01*
X6057138Y-3989323D01*
X5992622Y-3795521D02*
G01*
X6121908Y-3795521D01*
X6182868Y-3860037D02*
G01*
X6182868Y-3952494D01*
X6192011Y-3980179D01*
X6210554Y-3989323D01*
X6238240Y-3989323D01*
X6256781Y-3980179D01*
X6284468Y-3952494D01*
X6284468Y-3860037D02*
G01*
X6284468Y-3989323D01*
X6373113Y-3795521D02*
G01*
X6373113Y-3952494D01*
X6382258Y-3980179D01*
X6400800Y-3989323D01*
X6419341Y-3989323D01*
X6345427Y-3860037D02*
G01*
X6409943Y-3860037D01*
X6480302Y-3915410D02*
G01*
X6591045Y-3915410D01*
X6591045Y-3897121D01*
X6581902Y-3878579D01*
X6572504Y-3869436D01*
X6554215Y-3860037D01*
X6526529Y-3860037D01*
X6507988Y-3869436D01*
X6489445Y-3887723D01*
X6480302Y-3915410D01*
X6480302Y-3933952D01*
X6489445Y-3961637D01*
X6507988Y-3980179D01*
X6526529Y-3989323D01*
X6554215Y-3989323D01*
X6572504Y-3980179D01*
X6591045Y-3961637D01*
X6652006Y-3795521D02*
G01*
X6652006Y-3989323D01*
X6712965Y-3795521D02*
G01*
X6712965Y-3989323D01*
X6712965Y-3795521D02*
G01*
X6796024Y-3795521D01*
X6823709Y-3804665D01*
X6833108Y-3813810D01*
X6842252Y-3832352D01*
X6842252Y-3860037D01*
X6833108Y-3878579D01*
X6823709Y-3887723D01*
X6796024Y-3897121D01*
X6712965Y-3897121D01*
X7014209Y-3860037D02*
G01*
X7014209Y-3989323D01*
X7014209Y-3887723D02*
G01*
X6995668Y-3869436D01*
X6977125Y-3860037D01*
X6949440Y-3860037D01*
X6930897Y-3869436D01*
X6912609Y-3887723D01*
X6903211Y-3915410D01*
X6903211Y-3933952D01*
X6912609Y-3961637D01*
X6930897Y-3980179D01*
X6949440Y-3989323D01*
X6977125Y-3989323D01*
X6995668Y-3980179D01*
X7014209Y-3961637D01*
X7185913Y-3795521D02*
G01*
X7185913Y-3989323D01*
X7185913Y-3887723D02*
G01*
X7167372Y-3869436D01*
X7148829Y-3860037D01*
X7121143Y-3860037D01*
X7102856Y-3869436D01*
X7084313Y-3887723D01*
X7075170Y-3915410D01*
X7075170Y-3933952D01*
X7084313Y-3961637D01*
X7102856Y-3980179D01*
X7121143Y-3989323D01*
X7148829Y-3989323D01*
X7167372Y-3980179D01*
X7185913Y-3961637D01*
D11*
X2907284Y2768600D02*
G01*
X3016250Y2841244D01*
X2907284Y2841244D02*
G01*
X3016250Y2768600D01*
X2928111Y2875534D02*
G01*
X2922777Y2885947D01*
X2907284Y2901695D01*
X3016250Y2901695D01*
X6338315Y2679700D02*
G01*
X6229350Y2679700D01*
X6338315Y2679700D02*
G01*
X6338315Y2643378D01*
X6333236Y2627629D01*
X6322822Y2617470D01*
X6312408Y2612136D01*
X6296659Y2607055D01*
X6270752Y2607055D01*
X6255258Y2612136D01*
X6244843Y2617470D01*
X6234429Y2627629D01*
X6229350Y2643378D01*
X6229350Y2679700D01*
X6317488Y2572765D02*
G01*
X6322822Y2562352D01*
X6338315Y2546604D01*
X6229350Y2546604D01*
X8243313Y2692400D02*
G01*
X8134347Y2692400D01*
X8243313Y2692400D02*
G01*
X8243313Y2656078D01*
X8238233Y2640329D01*
X8227819Y2630170D01*
X8217405Y2624836D01*
X8201657Y2619755D01*
X8175749Y2619755D01*
X8160255Y2624836D01*
X8149841Y2630170D01*
X8139427Y2640329D01*
X8134347Y2656078D01*
X8134347Y2692400D01*
X8217405Y2580131D02*
G01*
X8222485Y2580131D01*
X8232899Y2575052D01*
X8238233Y2569718D01*
X8243313Y2559304D01*
X8243313Y2538729D01*
X8238233Y2528315D01*
X8232899Y2522981D01*
X8222485Y2517902D01*
X8212071Y2517902D01*
X8201657Y2522981D01*
X8186163Y2533395D01*
X8134347Y2585465D01*
X8134347Y2512568D01*
X10173715Y2705100D02*
G01*
X10064750Y2705100D01*
X10173715Y2705100D02*
G01*
X10173715Y2668778D01*
X10168636Y2653029D01*
X10158222Y2642870D01*
X10147808Y2637536D01*
X10132059Y2632455D01*
X10106152Y2632455D01*
X10090658Y2637536D01*
X10080243Y2642870D01*
X10069829Y2653029D01*
X10064750Y2668778D01*
X10064750Y2705100D01*
X10173715Y2587752D02*
G01*
X10173715Y2530602D01*
X10132059Y2561589D01*
X10132059Y2546095D01*
X10126979Y2535681D01*
X10121900Y2530602D01*
X10106152Y2525268D01*
X10095738Y2525268D01*
X10080243Y2530602D01*
X10069829Y2541015D01*
X10064750Y2556510D01*
X10064750Y2572004D01*
X10069829Y2587752D01*
X10074909Y2592831D01*
X10085324Y2598165D01*
X10180065Y761997D02*
G01*
X10071100Y761997D01*
X10180065Y761997D02*
G01*
X10180065Y725675D01*
X10174986Y709927D01*
X10164572Y699767D01*
X10154158Y694433D01*
X10138409Y689353D01*
X10112502Y689353D01*
X10097008Y694433D01*
X10086593Y699767D01*
X10076179Y709927D01*
X10071100Y725675D01*
X10071100Y761997D01*
X10180065Y602993D02*
G01*
X10107422Y655063D01*
X10107422Y577085D01*
X10180065Y602993D02*
G01*
X10071100Y602993D01*
X8249665Y749302D02*
G01*
X8140700Y749302D01*
X8249665Y749302D02*
G01*
X8249665Y712980D01*
X8244586Y697232D01*
X8234172Y687072D01*
X8223758Y681738D01*
X8208009Y676658D01*
X8182102Y676658D01*
X8166608Y681738D01*
X8156193Y687072D01*
X8145779Y697232D01*
X8140700Y712980D01*
X8140700Y749302D01*
X8249665Y579884D02*
G01*
X8249665Y631954D01*
X8202929Y637034D01*
X8208009Y631954D01*
X8213343Y616206D01*
X8213343Y600712D01*
X8208009Y585218D01*
X8197850Y574804D01*
X8182102Y569470D01*
X8171688Y569470D01*
X8156193Y574804D01*
X8145779Y585218D01*
X8140700Y600712D01*
X8140700Y616206D01*
X8145779Y631954D01*
X8150859Y637034D01*
X8161274Y642368D01*
X6344665Y749300D02*
G01*
X6235700Y749300D01*
X6344665Y749300D02*
G01*
X6344665Y712978D01*
X6339586Y697229D01*
X6329172Y687070D01*
X6318758Y681736D01*
X6303009Y676655D01*
X6277102Y676655D01*
X6261608Y681736D01*
X6251193Y687070D01*
X6240779Y697229D01*
X6235700Y712978D01*
X6235700Y749300D01*
X6329172Y579881D02*
G01*
X6339586Y585215D01*
X6344665Y600710D01*
X6344665Y611123D01*
X6339586Y626618D01*
X6323838Y637031D01*
X6297929Y642365D01*
X6272022Y642365D01*
X6251193Y637031D01*
X6240779Y626618D01*
X6235700Y611123D01*
X6235700Y605789D01*
X6240779Y590295D01*
X6251193Y579881D01*
X6266688Y574802D01*
X6272022Y574802D01*
X6287515Y579881D01*
X6297929Y590295D01*
X6303009Y605789D01*
X6303009Y611123D01*
X6297929Y626618D01*
X6287515Y637031D01*
X6272022Y642365D01*
X6338315Y-3086100D02*
G01*
X6229350Y-3086100D01*
X6338315Y-3086100D02*
G01*
X6338315Y-3122421D01*
X6333236Y-3138170D01*
X6322822Y-3148329D01*
X6312408Y-3153663D01*
X6296659Y-3158744D01*
X6270752Y-3158744D01*
X6255258Y-3153663D01*
X6244843Y-3148329D01*
X6234429Y-3138170D01*
X6229350Y-3122421D01*
X6229350Y-3086100D01*
X6338315Y-3265931D02*
G01*
X6229350Y-3213862D01*
X6338315Y-3193034D02*
G01*
X6338315Y-3265931D01*
X8243315Y-3073397D02*
G01*
X8134350Y-3073397D01*
X8243315Y-3073397D02*
G01*
X8243315Y-3109719D01*
X8238236Y-3125467D01*
X8227822Y-3135627D01*
X8217408Y-3140961D01*
X8201659Y-3146041D01*
X8175752Y-3146041D01*
X8160258Y-3140961D01*
X8149843Y-3135627D01*
X8139429Y-3125467D01*
X8134350Y-3109719D01*
X8134350Y-3073397D01*
X8243315Y-3206493D02*
G01*
X8238236Y-3190745D01*
X8227822Y-3185665D01*
X8217408Y-3185665D01*
X8206993Y-3190745D01*
X8201659Y-3201159D01*
X8196579Y-3221987D01*
X8191500Y-3237481D01*
X8181086Y-3247895D01*
X8170672Y-3253229D01*
X8154924Y-3253229D01*
X8144509Y-3247895D01*
X8139429Y-3242815D01*
X8134350Y-3227067D01*
X8134350Y-3206493D01*
X8139429Y-3190745D01*
X8144509Y-3185665D01*
X8154924Y-3180331D01*
X8170672Y-3180331D01*
X8181086Y-3185665D01*
X8191500Y-3196079D01*
X8196579Y-3211573D01*
X8201659Y-3232401D01*
X8206993Y-3242815D01*
X8217408Y-3247895D01*
X8227822Y-3247895D01*
X8238236Y-3242815D01*
X8243315Y-3227067D01*
X8243315Y-3206493D01*
X10173715Y-3086102D02*
G01*
X10064750Y-3086102D01*
X10173715Y-3086102D02*
G01*
X10173715Y-3122424D01*
X10168636Y-3138172D01*
X10158222Y-3148332D01*
X10147808Y-3153666D01*
X10132059Y-3158746D01*
X10106152Y-3158746D01*
X10090658Y-3153666D01*
X10080243Y-3148332D01*
X10069829Y-3138172D01*
X10064750Y-3122424D01*
X10064750Y-3086102D01*
X10137393Y-3260600D02*
G01*
X10121900Y-3255520D01*
X10111486Y-3245106D01*
X10106152Y-3229612D01*
X10106152Y-3224278D01*
X10111486Y-3208784D01*
X10121900Y-3198370D01*
X10137393Y-3193036D01*
X10142474Y-3193036D01*
X10158222Y-3198370D01*
X10168636Y-3208784D01*
X10173715Y-3224278D01*
X10173715Y-3229612D01*
X10168636Y-3245106D01*
X10158222Y-3255520D01*
X10137393Y-3260600D01*
X10111486Y-3260600D01*
X10085324Y-3255520D01*
X10069829Y-3245106D01*
X10064750Y-3229612D01*
X10064750Y-3219198D01*
X10069829Y-3203450D01*
X10080243Y-3198370D01*
X10126469Y-1066800D02*
G01*
X10017503Y-1066800D01*
X10126469Y-1066800D02*
G01*
X10126469Y-1103121D01*
X10121389Y-1118870D01*
X10110975Y-1129029D01*
X10100561Y-1134363D01*
X10084813Y-1139444D01*
X10058905Y-1139444D01*
X10043411Y-1134363D01*
X10032997Y-1129029D01*
X10022583Y-1118870D01*
X10017503Y-1103121D01*
X10017503Y-1066800D01*
X10105641Y-1173734D02*
G01*
X10110975Y-1184147D01*
X10126469Y-1199895D01*
X10017503Y-1199895D01*
X10126469Y-1265173D02*
G01*
X10121389Y-1249679D01*
X10105641Y-1239265D01*
X10079733Y-1234186D01*
X10064239Y-1234186D01*
X10038077Y-1239265D01*
X10022583Y-1249679D01*
X10017503Y-1265173D01*
X10017503Y-1275587D01*
X10022583Y-1291336D01*
X10038077Y-1301750D01*
X10064239Y-1306829D01*
X10079733Y-1306829D01*
X10105641Y-1301750D01*
X10121389Y-1291336D01*
X10126469Y-1275587D01*
X10126469Y-1265173D01*
X8249665Y-1079494D02*
G01*
X8140700Y-1079494D01*
X8249665Y-1079494D02*
G01*
X8249665Y-1115816D01*
X8244586Y-1131564D01*
X8234172Y-1141724D01*
X8223758Y-1147058D01*
X8208009Y-1152138D01*
X8182102Y-1152138D01*
X8166608Y-1147058D01*
X8156193Y-1141724D01*
X8145779Y-1131564D01*
X8140700Y-1115816D01*
X8140700Y-1079494D01*
X8228838Y-1186428D02*
G01*
X8234172Y-1196842D01*
X8249665Y-1212590D01*
X8140700Y-1212590D01*
X8228838Y-1246880D02*
G01*
X8234172Y-1257294D01*
X8249665Y-1272788D01*
X8140700Y-1272788D01*
X6344665Y-1066800D02*
G01*
X6235700Y-1066800D01*
X6344665Y-1066800D02*
G01*
X6344665Y-1103121D01*
X6339586Y-1118870D01*
X6329172Y-1129029D01*
X6318758Y-1134363D01*
X6303009Y-1139444D01*
X6277102Y-1139444D01*
X6261608Y-1134363D01*
X6251193Y-1129029D01*
X6240779Y-1118870D01*
X6235700Y-1103121D01*
X6235700Y-1066800D01*
X6323838Y-1173734D02*
G01*
X6329172Y-1184147D01*
X6344665Y-1199895D01*
X6235700Y-1199895D01*
X6318758Y-1239265D02*
G01*
X6323838Y-1239265D01*
X6334252Y-1244600D01*
X6339586Y-1249679D01*
X6344665Y-1260094D01*
X6344665Y-1280921D01*
X6339586Y-1291336D01*
X6334252Y-1296415D01*
X6323838Y-1301750D01*
X6313424Y-1301750D01*
X6303009Y-1296415D01*
X6287515Y-1286002D01*
X6235700Y-1234186D01*
X6235700Y-1306829D01*
X3504501Y3071736D02*
G01*
X3504501Y3180702D01*
X3470211Y3071736D02*
G01*
X3470211Y3180702D01*
X3470211Y3071736D02*
G01*
X3428555Y3180702D01*
X3387153Y3071736D02*
G01*
X3428555Y3180702D01*
X3387153Y3071736D02*
G01*
X3387153Y3180702D01*
X3352863Y3071736D02*
G01*
X3352863Y3149714D01*
X3347529Y3165208D01*
X3337115Y3175622D01*
X3321621Y3180702D01*
X3311207Y3180702D01*
X3295713Y3175622D01*
X3285299Y3165208D01*
X3279965Y3149714D01*
X3279965Y3071736D01*
X3245675Y3092564D02*
G01*
X3235261Y3087230D01*
X3219767Y3071736D01*
X3219767Y3180702D01*
X4885943Y2766821D02*
G01*
X4875529Y2777236D01*
X4860036Y2782315D01*
X4839208Y2782315D01*
X4823713Y2777236D01*
X4813300Y2766821D01*
X4813300Y2756407D01*
X4818379Y2745994D01*
X4823713Y2740660D01*
X4834127Y2735579D01*
X4865370Y2725165D01*
X4875529Y2720086D01*
X4880863Y2714752D01*
X4885943Y2704337D01*
X4885943Y2688844D01*
X4875529Y2678429D01*
X4860036Y2673350D01*
X4839208Y2673350D01*
X4823713Y2678429D01*
X4813300Y2688844D01*
X4920234Y2782315D02*
G01*
X4946395Y2673350D01*
X4972304Y2782315D02*
G01*
X4946395Y2673350D01*
X4972304Y2782315D02*
G01*
X4998211Y2673350D01*
X5024120Y2782315D02*
G01*
X4998211Y2673350D01*
X5058409Y2761487D02*
G01*
X5068824Y2766821D01*
X5084572Y2782315D01*
X5084572Y2673350D01*
X6752843Y2830321D02*
G01*
X6742429Y2840736D01*
X6726936Y2845815D01*
X6706108Y2845815D01*
X6690613Y2840736D01*
X6680200Y2830321D01*
X6680200Y2819907D01*
X6685279Y2809494D01*
X6690613Y2804160D01*
X6701027Y2799079D01*
X6732270Y2788665D01*
X6742429Y2783586D01*
X6747763Y2778252D01*
X6752843Y2767837D01*
X6752843Y2752344D01*
X6742429Y2741929D01*
X6726936Y2736850D01*
X6706108Y2736850D01*
X6690613Y2741929D01*
X6680200Y2752344D01*
X6787134Y2845815D02*
G01*
X6813295Y2736850D01*
X6839204Y2845815D02*
G01*
X6813295Y2736850D01*
X6839204Y2845815D02*
G01*
X6865111Y2736850D01*
X6891020Y2845815D02*
G01*
X6865111Y2736850D01*
X6930643Y2819907D02*
G01*
X6930643Y2824987D01*
X6935724Y2835402D01*
X6941058Y2840736D01*
X6951472Y2845815D01*
X6972300Y2845815D01*
X6982459Y2840736D01*
X6987793Y2835402D01*
X6992874Y2824987D01*
X6992874Y2814573D01*
X6987793Y2804160D01*
X6977379Y2788665D01*
X6925309Y2736850D01*
X6998208Y2736850D01*
X8657843Y2792221D02*
G01*
X8647429Y2802636D01*
X8631936Y2807715D01*
X8611108Y2807715D01*
X8595613Y2802636D01*
X8585200Y2792221D01*
X8585200Y2781807D01*
X8590279Y2771394D01*
X8595613Y2766060D01*
X8606027Y2760979D01*
X8637270Y2750565D01*
X8647429Y2745486D01*
X8652763Y2740152D01*
X8657843Y2729737D01*
X8657843Y2714244D01*
X8647429Y2703829D01*
X8631936Y2698750D01*
X8611108Y2698750D01*
X8595613Y2703829D01*
X8585200Y2714244D01*
X8692134Y2807715D02*
G01*
X8718295Y2698750D01*
X8744204Y2807715D02*
G01*
X8718295Y2698750D01*
X8744204Y2807715D02*
G01*
X8770111Y2698750D01*
X8796020Y2807715D02*
G01*
X8770111Y2698750D01*
X8840724Y2807715D02*
G01*
X8897874Y2807715D01*
X8866886Y2766060D01*
X8882379Y2766060D01*
X8892793Y2760979D01*
X8897874Y2755900D01*
X8903208Y2740152D01*
X8903208Y2729737D01*
X8897874Y2714244D01*
X8887459Y2703829D01*
X8871965Y2698750D01*
X8856472Y2698750D01*
X8840724Y2703829D01*
X8835643Y2708910D01*
X8830309Y2719323D01*
X8645143Y925321D02*
G01*
X8634729Y935736D01*
X8619236Y940815D01*
X8598408Y940815D01*
X8582913Y935736D01*
X8572500Y925321D01*
X8572500Y914907D01*
X8577579Y904494D01*
X8582913Y899160D01*
X8593327Y894079D01*
X8624570Y883665D01*
X8634729Y878586D01*
X8640063Y873252D01*
X8645143Y862837D01*
X8645143Y847344D01*
X8634729Y836929D01*
X8619236Y831850D01*
X8598408Y831850D01*
X8582913Y836929D01*
X8572500Y847344D01*
X8679434Y940815D02*
G01*
X8705595Y831850D01*
X8731504Y940815D02*
G01*
X8705595Y831850D01*
X8731504Y940815D02*
G01*
X8757411Y831850D01*
X8783320Y940815D02*
G01*
X8757411Y831850D01*
X8869679Y940815D02*
G01*
X8817609Y868171D01*
X8895585Y868171D01*
X8869679Y940815D02*
G01*
X8869679Y831850D01*
X6740143Y912621D02*
G01*
X6729729Y923036D01*
X6714236Y928115D01*
X6693408Y928115D01*
X6677913Y923036D01*
X6667500Y912621D01*
X6667500Y902207D01*
X6672579Y891794D01*
X6677913Y886460D01*
X6688327Y881379D01*
X6719570Y870965D01*
X6729729Y865886D01*
X6735063Y860552D01*
X6740143Y850137D01*
X6740143Y834644D01*
X6729729Y824229D01*
X6714236Y819150D01*
X6693408Y819150D01*
X6677913Y824229D01*
X6667500Y834644D01*
X6774434Y928115D02*
G01*
X6800595Y819150D01*
X6826504Y928115D02*
G01*
X6800595Y819150D01*
X6826504Y928115D02*
G01*
X6852411Y819150D01*
X6878320Y928115D02*
G01*
X6852411Y819150D01*
X6975093Y928115D02*
G01*
X6923024Y928115D01*
X6917943Y881379D01*
X6923024Y886460D01*
X6938772Y891794D01*
X6954265Y891794D01*
X6969759Y886460D01*
X6980174Y876300D01*
X6985508Y860552D01*
X6985508Y850137D01*
X6980174Y834644D01*
X6969759Y824229D01*
X6954265Y819150D01*
X6938772Y819150D01*
X6923024Y824229D01*
X6917943Y829310D01*
X6912609Y839723D01*
X4822443Y899921D02*
G01*
X4812029Y910336D01*
X4796536Y915415D01*
X4775708Y915415D01*
X4760213Y910336D01*
X4749800Y899921D01*
X4749800Y889507D01*
X4754879Y879094D01*
X4760213Y873760D01*
X4770627Y868679D01*
X4801870Y858265D01*
X4812029Y853186D01*
X4817363Y847852D01*
X4822443Y837437D01*
X4822443Y821944D01*
X4812029Y811529D01*
X4796536Y806450D01*
X4775708Y806450D01*
X4760213Y811529D01*
X4749800Y821944D01*
X4856734Y915415D02*
G01*
X4882895Y806450D01*
X4908804Y915415D02*
G01*
X4882895Y806450D01*
X4908804Y915415D02*
G01*
X4934711Y806450D01*
X4960620Y915415D02*
G01*
X4934711Y806450D01*
X5057393Y899921D02*
G01*
X5052059Y910336D01*
X5036565Y915415D01*
X5026152Y915415D01*
X5010658Y910336D01*
X5000243Y894587D01*
X4994909Y868679D01*
X4994909Y842771D01*
X5000243Y821944D01*
X5010658Y811529D01*
X5026152Y806450D01*
X5031486Y806450D01*
X5046979Y811529D01*
X5057393Y821944D01*
X5062474Y837437D01*
X5062474Y842771D01*
X5057393Y858265D01*
X5046979Y868679D01*
X5031486Y873760D01*
X5026152Y873760D01*
X5010658Y868679D01*
X5000243Y858265D01*
X4994909Y842771D01*
X4924043Y-2948178D02*
G01*
X4913629Y-2937763D01*
X4898136Y-2932684D01*
X4877308Y-2932684D01*
X4861813Y-2937763D01*
X4851400Y-2948178D01*
X4851400Y-2958592D01*
X4856479Y-2969005D01*
X4861813Y-2974339D01*
X4872227Y-2979420D01*
X4903470Y-2989834D01*
X4913629Y-2994913D01*
X4918963Y-3000247D01*
X4924043Y-3010662D01*
X4924043Y-3026155D01*
X4913629Y-3036570D01*
X4898136Y-3041650D01*
X4877308Y-3041650D01*
X4861813Y-3036570D01*
X4851400Y-3026155D01*
X4958334Y-2932684D02*
G01*
X4984495Y-3041650D01*
X5010404Y-2932684D02*
G01*
X4984495Y-3041650D01*
X5010404Y-2932684D02*
G01*
X5036311Y-3041650D01*
X5062220Y-2932684D02*
G01*
X5036311Y-3041650D01*
X5169408Y-2932684D02*
G01*
X5117335Y-3041650D01*
X5096509Y-2932684D02*
G01*
X5169408Y-2932684D01*
X6790943Y-2935478D02*
G01*
X6780529Y-2925063D01*
X6765036Y-2919984D01*
X6744208Y-2919984D01*
X6728713Y-2925063D01*
X6718300Y-2935478D01*
X6718300Y-2945892D01*
X6723379Y-2956305D01*
X6728713Y-2961639D01*
X6739127Y-2966720D01*
X6770370Y-2977134D01*
X6780529Y-2982213D01*
X6785863Y-2987547D01*
X6790943Y-2997962D01*
X6790943Y-3013455D01*
X6780529Y-3023870D01*
X6765036Y-3028950D01*
X6744208Y-3028950D01*
X6728713Y-3023870D01*
X6718300Y-3013455D01*
X6825234Y-2919984D02*
G01*
X6851395Y-3028950D01*
X6877304Y-2919984D02*
G01*
X6851395Y-3028950D01*
X6877304Y-2919984D02*
G01*
X6903211Y-3028950D01*
X6929120Y-2919984D02*
G01*
X6903211Y-3028950D01*
X6989572Y-2919984D02*
G01*
X6973824Y-2925063D01*
X6968743Y-2935478D01*
X6968743Y-2945892D01*
X6973824Y-2956305D01*
X6984238Y-2961639D01*
X7005065Y-2966720D01*
X7020559Y-2971800D01*
X7030974Y-2982213D01*
X7036308Y-2992628D01*
X7036308Y-3008376D01*
X7030974Y-3018789D01*
X7025893Y-3023870D01*
X7010400Y-3028950D01*
X6989572Y-3028950D01*
X6973824Y-3023870D01*
X6968743Y-3018789D01*
X6963409Y-3008376D01*
X6963409Y-2992628D01*
X6968743Y-2982213D01*
X6979158Y-2971800D01*
X6994652Y-2966720D01*
X7015479Y-2961639D01*
X7025893Y-2956305D01*
X7030974Y-2945892D01*
X7030974Y-2935478D01*
X7025893Y-2925063D01*
X7010400Y-2919984D01*
X6989572Y-2919984D01*
X8721343Y-2998978D02*
G01*
X8710929Y-2988563D01*
X8695436Y-2983484D01*
X8674608Y-2983484D01*
X8659113Y-2988563D01*
X8648700Y-2998978D01*
X8648700Y-3009392D01*
X8653779Y-3019805D01*
X8659113Y-3025139D01*
X8669527Y-3030220D01*
X8700770Y-3040634D01*
X8710929Y-3045713D01*
X8716263Y-3051047D01*
X8721343Y-3061462D01*
X8721343Y-3076955D01*
X8710929Y-3087370D01*
X8695436Y-3092450D01*
X8674608Y-3092450D01*
X8659113Y-3087370D01*
X8648700Y-3076955D01*
X8755634Y-2983484D02*
G01*
X8781795Y-3092450D01*
X8807704Y-2983484D02*
G01*
X8781795Y-3092450D01*
X8807704Y-2983484D02*
G01*
X8833611Y-3092450D01*
X8859520Y-2983484D02*
G01*
X8833611Y-3092450D01*
X8961374Y-3019805D02*
G01*
X8956293Y-3035300D01*
X8945879Y-3045713D01*
X8930386Y-3051047D01*
X8925052Y-3051047D01*
X8909558Y-3045713D01*
X8899143Y-3035300D01*
X8893809Y-3019805D01*
X8893809Y-3014726D01*
X8899143Y-2998978D01*
X8909558Y-2988563D01*
X8925052Y-2983484D01*
X8930386Y-2983484D01*
X8945879Y-2988563D01*
X8956293Y-2998978D01*
X8961374Y-3019805D01*
X8961374Y-3045713D01*
X8956293Y-3071876D01*
X8945879Y-3087370D01*
X8930386Y-3092450D01*
X8919972Y-3092450D01*
X8904224Y-3087370D01*
X8899143Y-3076955D01*
X8632443Y-941578D02*
G01*
X8622029Y-931163D01*
X8606536Y-926084D01*
X8585708Y-926084D01*
X8570213Y-931163D01*
X8559800Y-941578D01*
X8559800Y-951992D01*
X8564879Y-962405D01*
X8570213Y-967739D01*
X8580627Y-972820D01*
X8611870Y-983234D01*
X8622029Y-988313D01*
X8627363Y-993647D01*
X8632443Y-1004062D01*
X8632443Y-1019555D01*
X8622029Y-1029970D01*
X8606536Y-1035050D01*
X8585708Y-1035050D01*
X8570213Y-1029970D01*
X8559800Y-1019555D01*
X8666734Y-926084D02*
G01*
X8692895Y-1035050D01*
X8718804Y-926084D02*
G01*
X8692895Y-1035050D01*
X8718804Y-926084D02*
G01*
X8744711Y-1035050D01*
X8770620Y-926084D02*
G01*
X8744711Y-1035050D01*
X8804909Y-946912D02*
G01*
X8815324Y-941578D01*
X8831072Y-926084D01*
X8831072Y-1035050D01*
X8896350Y-926084D02*
G01*
X8880856Y-931163D01*
X8870441Y-946912D01*
X8865361Y-972820D01*
X8865361Y-988313D01*
X8870441Y-1014476D01*
X8880856Y-1029970D01*
X8896350Y-1035050D01*
X8906763Y-1035050D01*
X8922511Y-1029970D01*
X8932925Y-1014476D01*
X8938006Y-988313D01*
X8938006Y-972820D01*
X8932925Y-946912D01*
X8922511Y-931163D01*
X8906763Y-926084D01*
X8896350Y-926084D01*
X6752843Y-992378D02*
G01*
X6742429Y-981963D01*
X6726936Y-976884D01*
X6706108Y-976884D01*
X6690613Y-981963D01*
X6680200Y-992378D01*
X6680200Y-1002792D01*
X6685279Y-1013205D01*
X6690613Y-1018539D01*
X6701027Y-1023620D01*
X6732270Y-1034034D01*
X6742429Y-1039113D01*
X6747763Y-1044447D01*
X6752843Y-1054862D01*
X6752843Y-1070355D01*
X6742429Y-1080770D01*
X6726936Y-1085850D01*
X6706108Y-1085850D01*
X6690613Y-1080770D01*
X6680200Y-1070355D01*
X6787134Y-976884D02*
G01*
X6813295Y-1085850D01*
X6839204Y-976884D02*
G01*
X6813295Y-1085850D01*
X6839204Y-976884D02*
G01*
X6865111Y-1085850D01*
X6891020Y-976884D02*
G01*
X6865111Y-1085850D01*
X6925309Y-997712D02*
G01*
X6935724Y-992378D01*
X6951472Y-976884D01*
X6951472Y-1085850D01*
X6985761Y-997712D02*
G01*
X6996175Y-992378D01*
X7011670Y-976884D01*
X7011670Y-1085850D01*
X4911343Y-1030478D02*
G01*
X4900929Y-1020063D01*
X4885436Y-1014984D01*
X4864608Y-1014984D01*
X4849113Y-1020063D01*
X4838700Y-1030478D01*
X4838700Y-1040892D01*
X4843779Y-1051305D01*
X4849113Y-1056639D01*
X4859527Y-1061720D01*
X4890770Y-1072134D01*
X4900929Y-1077213D01*
X4906263Y-1082547D01*
X4911343Y-1092962D01*
X4911343Y-1108455D01*
X4900929Y-1118870D01*
X4885436Y-1123950D01*
X4864608Y-1123950D01*
X4849113Y-1118870D01*
X4838700Y-1108455D01*
X4945634Y-1014984D02*
G01*
X4971795Y-1123950D01*
X4997704Y-1014984D02*
G01*
X4971795Y-1123950D01*
X4997704Y-1014984D02*
G01*
X5023611Y-1123950D01*
X5049520Y-1014984D02*
G01*
X5023611Y-1123950D01*
X5083809Y-1035812D02*
G01*
X5094224Y-1030478D01*
X5109969Y-1014984D01*
X5109969Y-1123950D01*
X5149341Y-1040892D02*
G01*
X5149341Y-1035812D01*
X5154675Y-1025397D01*
X5159753Y-1020063D01*
X5170170Y-1014984D01*
X5190997Y-1014984D01*
X5201411Y-1020063D01*
X5206491Y-1025397D01*
X5211825Y-1035812D01*
X5211825Y-1046226D01*
X5206491Y-1056639D01*
X5196077Y-1072134D01*
X5144261Y-1123950D01*
X5216903Y-1123950D01*
X3492500Y686815D02*
G01*
X3492500Y608837D01*
X3497579Y593344D01*
X3507993Y582929D01*
X3523741Y577850D01*
X3534156Y577850D01*
X3549650Y582929D01*
X3560063Y593344D01*
X3565143Y608837D01*
X3565143Y686815D01*
X3599434Y665987D02*
G01*
X3609847Y671321D01*
X3625595Y686815D01*
X3625595Y577850D01*
D10*
X3624275Y-747166D02*
G01*
X3430473Y-673252D01*
X3624275Y-747166D02*
G01*
X3430473Y-821080D01*
X3494989Y-700938D02*
G01*
X3494989Y-793394D01*
X3624275Y-909726D02*
G01*
X3467303Y-909726D01*
X3439617Y-918870D01*
X3430473Y-937412D01*
X3430473Y-955954D01*
X3559759Y-882040D02*
G01*
X3559759Y-946556D01*
X3559759Y-1016914D02*
G01*
X3430473Y-1016914D01*
X3522675Y-1016914D02*
G01*
X3550361Y-1044600D01*
X3559759Y-1063142D01*
X3559759Y-1090828D01*
X3550361Y-1109116D01*
X3522675Y-1118514D01*
X3430473Y-1118514D01*
X3522675Y-1118514D02*
G01*
X3550361Y-1146200D01*
X3559759Y-1164742D01*
X3559759Y-1192428D01*
X3550361Y-1210716D01*
X3522675Y-1220114D01*
X3430473Y-1220114D01*
X3559759Y-1391818D02*
G01*
X3430473Y-1391818D01*
X3532073Y-1391818D02*
G01*
X3550361Y-1373276D01*
X3559759Y-1354988D01*
X3559759Y-1327302D01*
X3550361Y-1308760D01*
X3532073Y-1290218D01*
X3504387Y-1281074D01*
X3485845Y-1281074D01*
X3458159Y-1290218D01*
X3439617Y-1308760D01*
X3430473Y-1327302D01*
X3430473Y-1354988D01*
X3439617Y-1373276D01*
X3458159Y-1391818D01*
X3559759Y-1563522D02*
G01*
X3411931Y-1563522D01*
X3384245Y-1554378D01*
X3375101Y-1545234D01*
X3365703Y-1526692D01*
X3365703Y-1499006D01*
X3375101Y-1480464D01*
X3532073Y-1563522D02*
G01*
X3550361Y-1545234D01*
X3559759Y-1526692D01*
X3559759Y-1499006D01*
X3550361Y-1480464D01*
X3532073Y-1461922D01*
X3504387Y-1452778D01*
X3485845Y-1452778D01*
X3458159Y-1461922D01*
X3439617Y-1480464D01*
X3430473Y-1499006D01*
X3430473Y-1526692D01*
X3439617Y-1545234D01*
X3458159Y-1563522D01*
X3559759Y-1735480D02*
G01*
X3430473Y-1735480D01*
X3532073Y-1735480D02*
G01*
X3550361Y-1716938D01*
X3559759Y-1698396D01*
X3559759Y-1670710D01*
X3550361Y-1652422D01*
X3532073Y-1633880D01*
X3504387Y-1624482D01*
X3485845Y-1624482D01*
X3458159Y-1633880D01*
X3439617Y-1652422D01*
X3430473Y-1670710D01*
X3430473Y-1698396D01*
X3439617Y-1716938D01*
X3458159Y-1735480D01*
X3624275Y-1814982D02*
G01*
X3624275Y-1916582D01*
X3550361Y-1860956D01*
X3550361Y-1888642D01*
X3541217Y-1907184D01*
X3532073Y-1916582D01*
X3504387Y-1925726D01*
X3485845Y-1925726D01*
X3458159Y-1916582D01*
X3439617Y-1898040D01*
X3430473Y-1870354D01*
X3430473Y-1842668D01*
X3439617Y-1814982D01*
X3448761Y-1805584D01*
X3467303Y-1796440D01*
X3578301Y-1995830D02*
G01*
X3587445Y-1995830D01*
X3605987Y-2005228D01*
X3615131Y-2014372D01*
X3624275Y-2032914D01*
X3624275Y-2069744D01*
X3615131Y-2088286D01*
X3605987Y-2097430D01*
X3587445Y-2106828D01*
X3568903Y-2106828D01*
X3550361Y-2097430D01*
X3522675Y-2079142D01*
X3430473Y-1986686D01*
X3430473Y-2115972D01*
X3624275Y-2176932D02*
G01*
X3485845Y-2176932D01*
X3458159Y-2186076D01*
X3439617Y-2204618D01*
X3430473Y-2232304D01*
X3430473Y-2250846D01*
X3439617Y-2278532D01*
X3458159Y-2297074D01*
X3485845Y-2306218D01*
X3624275Y-2306218D01*
X3624275Y-2459634D02*
G01*
X3494989Y-2367178D01*
X3494989Y-2505862D01*
X3624275Y-2459634D02*
G01*
X3430473Y-2459634D01*
X3111502Y-47503D02*
G01*
X3111502Y-241305D01*
X3111502Y-47503D02*
G01*
X3185416Y-241305D01*
X3259330Y-47503D02*
G01*
X3185416Y-241305D01*
X3259330Y-47503D02*
G01*
X3259330Y-241305D01*
X3320290Y-47503D02*
G01*
X3329434Y-56647D01*
X3338832Y-47503D01*
X3329434Y-38105D01*
X3320290Y-47503D01*
X3329434Y-112019D02*
G01*
X3329434Y-241305D01*
X3510536Y-139705D02*
G01*
X3491994Y-121417D01*
X3473452Y-112019D01*
X3445766Y-112019D01*
X3427478Y-121417D01*
X3408936Y-139705D01*
X3399792Y-167391D01*
X3399792Y-185933D01*
X3408936Y-213619D01*
X3427478Y-232161D01*
X3445766Y-241305D01*
X3473452Y-241305D01*
X3491994Y-232161D01*
X3510536Y-213619D01*
X3571496Y-112019D02*
G01*
X3571496Y-241305D01*
X3571496Y-167391D02*
G01*
X3580640Y-139705D01*
X3599182Y-121417D01*
X3617724Y-112019D01*
X3645410Y-112019D01*
X3752598Y-112019D02*
G01*
X3734056Y-121417D01*
X3715514Y-139705D01*
X3706370Y-167391D01*
X3706370Y-185933D01*
X3715514Y-213619D01*
X3734056Y-232161D01*
X3752598Y-241305D01*
X3780284Y-241305D01*
X3798572Y-232161D01*
X3817114Y-213619D01*
X3826512Y-185933D01*
X3826512Y-167391D01*
X3817114Y-139705D01*
X3798572Y-121417D01*
X3780284Y-112019D01*
X3752598Y-112019D01*
X3111502Y215897D02*
G01*
X3111502Y22095D01*
X3111502Y215897D02*
G01*
X3194560Y215897D01*
X3222246Y206753D01*
X3231644Y197609D01*
X3240788Y179067D01*
X3240788Y151381D01*
X3231644Y132839D01*
X3222246Y123695D01*
X3194560Y114297D01*
X3111502Y114297D01*
X3301748Y151381D02*
G01*
X3301748Y22095D01*
X3301748Y96009D02*
G01*
X3310892Y123695D01*
X3329434Y141983D01*
X3347976Y151381D01*
X3375662Y151381D01*
X3482850Y151381D02*
G01*
X3464308Y141983D01*
X3445766Y123695D01*
X3436622Y96009D01*
X3436622Y77467D01*
X3445766Y49781D01*
X3464308Y31239D01*
X3482850Y22095D01*
X3510536Y22095D01*
X3529078Y31239D01*
X3547366Y49781D01*
X3556764Y77467D01*
X3556764Y96009D01*
X3547366Y123695D01*
X3529078Y141983D01*
X3510536Y151381D01*
X3482850Y151381D01*
D12*
X4684753Y1830346D02*
G01*
X6084681Y1830346D01*
X6084681Y430420D01*
X4684753Y430420D01*
X4684753Y1830346D01*
X8494745Y3735344D02*
G01*
X9894674Y3735344D01*
X9894674Y2335415D01*
X8494745Y2335415D01*
X8494745Y3735344D01*
X6589750Y3735344D02*
G01*
X7989676Y3735344D01*
X7989676Y2335415D01*
X6589750Y2335415D01*
X6589750Y3735344D01*
X4684753Y3735344D02*
G01*
X6084681Y3735344D01*
X6084681Y2335415D01*
X4684753Y2335415D01*
X4684753Y3735344D01*
X8494745Y1830346D02*
G01*
X9894674Y1830346D01*
X9894674Y430420D01*
X8494745Y430420D01*
X8494745Y1830346D01*
X6589750Y1830346D02*
G01*
X7989676Y1830346D01*
X7989676Y430420D01*
X6589750Y430420D01*
X6589750Y1830346D01*
X8494745Y-74658D02*
G01*
X9894674Y-74658D01*
X9894674Y-1474596D01*
X8494745Y-1474596D01*
X8494745Y-74658D01*
X6589750Y-74658D02*
G01*
X7989676Y-74658D01*
X7989676Y-1474596D01*
X6589750Y-1474596D01*
X6589750Y-74658D01*
X4684753Y-74658D02*
G01*
X6084681Y-74658D01*
X6084681Y-1474596D01*
X4684753Y-1474596D01*
X4684753Y-74658D01*
X8494745Y-1979645D02*
G01*
X9894674Y-1979645D01*
X9894674Y-3379589D01*
X8494745Y-3379589D01*
X8494745Y-1979645D01*
X6589750Y-1979645D02*
G01*
X7989676Y-1979645D01*
X7989676Y-3379589D01*
X6589750Y-3379589D01*
X6589750Y-1979645D01*
X4684753Y-1979645D02*
G01*
X6084681Y-1979645D01*
X6084681Y-3379589D01*
X4684753Y-3379589D01*
X4684753Y-1979645D01*
X3937000Y2895600D02*
G01*
X4013200Y2895600D01*
X4064000Y2844800D01*
X4064000Y2692400D01*
X4013200Y2641600D01*
X3937000Y2641600D01*
X3175000Y2895600D02*
G01*
X3098800Y2895600D01*
X3048000Y2844800D01*
X3048000Y2692400D01*
X3098800Y2641600D01*
X3175000Y2641600D01*
X3937000Y2895600D02*
G01*
X4013200Y2895600D01*
X4064000Y2844800D01*
X3937000Y2641600D02*
G01*
X4013200Y2641600D01*
X4064000Y2692400D01*
X3937000Y2895600D02*
G01*
X3860800Y2895600D01*
X3810000Y2844800D01*
X3937000Y2641600D02*
G01*
X3860800Y2641600D01*
X3810000Y2692400D01*
X3683000Y2641600D02*
G01*
X3759200Y2641600D01*
X3810000Y2692400D01*
X3683000Y2895600D02*
G01*
X3759200Y2895600D01*
X3810000Y2844800D01*
X3429000Y2895600D02*
G01*
X3505200Y2895600D01*
X3556000Y2844800D01*
X3683000Y2641600D02*
G01*
X3606800Y2641600D01*
X3556000Y2692400D01*
X3683000Y2895600D02*
G01*
X3606800Y2895600D01*
X3556000Y2844800D01*
X3429000Y2895600D02*
G01*
X3352800Y2895600D01*
X3302000Y2844800D01*
X3429000Y2641600D02*
G01*
X3505200Y2641600D01*
X3556000Y2692400D01*
X3429000Y2895600D02*
G01*
X3505200Y2895600D01*
X3556000Y2844800D01*
X3429000Y2641600D02*
G01*
X3352800Y2641600D01*
X3302000Y2692400D01*
X3175000Y2641600D02*
G01*
X3251200Y2641600D01*
X3302000Y2692400D01*
X3175000Y2895600D02*
G01*
X3251200Y2895600D01*
X3302000Y2844800D01*
D10*
X6362700Y2743200D02*
G01*
X6362700Y2235200D01*
X6286500Y2235200D01*
X6210300Y2235200D01*
X6210300Y2743200D01*
X6286500Y2743200D01*
X6362700Y2743200D01*
X6286500Y2235200D02*
G01*
X6286500Y2209800D01*
X6286500Y2743200D02*
G01*
X6286500Y2768600D01*
X6350000Y2298700D02*
G01*
X6223000Y2298700D01*
X8267700Y2743200D02*
G01*
X8267700Y2235200D01*
X8191500Y2235200D01*
X8115300Y2235200D01*
X8115300Y2743200D01*
X8191500Y2743200D01*
X8267700Y2743200D01*
X8191500Y2235200D02*
G01*
X8191500Y2209800D01*
X8191500Y2743200D02*
G01*
X8191500Y2768600D01*
X8255000Y2298700D02*
G01*
X8128000Y2298700D01*
X10198100Y2743200D02*
G01*
X10198100Y2235200D01*
X10121900Y2235200D01*
X10045700Y2235200D01*
X10045700Y2743200D01*
X10121900Y2743200D01*
X10198100Y2743200D01*
X10121900Y2235200D02*
G01*
X10121900Y2209800D01*
X10121900Y2743200D02*
G01*
X10121900Y2768600D01*
X10185400Y2298700D02*
G01*
X10058400Y2298700D01*
X10198100Y787397D02*
G01*
X10198100Y279397D01*
X10121900Y279397D01*
X10045700Y279397D01*
X10045700Y787397D01*
X10121900Y787397D01*
X10198100Y787397D01*
X10121900Y279397D02*
G01*
X10121900Y253997D01*
X10121900Y787397D02*
G01*
X10121900Y812797D01*
X10185400Y342897D02*
G01*
X10058400Y342897D01*
X8267700Y787402D02*
G01*
X8267700Y279402D01*
X8191500Y279402D01*
X8115300Y279402D01*
X8115300Y787402D01*
X8191500Y787402D01*
X8267700Y787402D01*
X8191500Y279402D02*
G01*
X8191500Y254002D01*
X8191500Y787402D02*
G01*
X8191500Y812802D01*
X8255000Y342902D02*
G01*
X8128000Y342902D01*
X6362700Y787400D02*
G01*
X6362700Y279400D01*
X6286500Y279400D01*
X6210300Y279400D01*
X6210300Y787400D01*
X6286500Y787400D01*
X6362700Y787400D01*
X6286500Y279400D02*
G01*
X6286500Y254000D01*
X6286500Y787400D02*
G01*
X6286500Y812800D01*
X6350000Y342900D02*
G01*
X6223000Y342900D01*
X6362700Y-3048000D02*
G01*
X6362700Y-3556000D01*
X6286500Y-3556000D01*
X6210300Y-3556000D01*
X6210300Y-3048000D01*
X6286500Y-3048000D01*
X6362700Y-3048000D01*
X6286500Y-3556000D02*
G01*
X6286500Y-3581400D01*
X6286500Y-3048000D02*
G01*
X6286500Y-3022600D01*
X6350000Y-3492500D02*
G01*
X6223000Y-3492500D01*
X8267700Y-3047997D02*
G01*
X8267700Y-3555997D01*
X8191500Y-3555997D01*
X8115300Y-3555997D01*
X8115300Y-3047997D01*
X8191500Y-3047997D01*
X8267700Y-3047997D01*
X8191500Y-3555997D02*
G01*
X8191500Y-3581397D01*
X8191500Y-3047997D02*
G01*
X8191500Y-3022597D01*
X8255000Y-3492497D02*
G01*
X8128000Y-3492497D01*
X10198100Y-3048002D02*
G01*
X10198100Y-3556002D01*
X10121900Y-3556002D01*
X10045700Y-3556002D01*
X10045700Y-3048002D01*
X10121900Y-3048002D01*
X10198100Y-3048002D01*
X10121900Y-3556002D02*
G01*
X10121900Y-3581402D01*
X10121900Y-3048002D02*
G01*
X10121900Y-3022602D01*
X10185400Y-3492502D02*
G01*
X10058400Y-3492502D01*
X10150853Y-1041400D02*
G01*
X10150853Y-1549400D01*
X10074653Y-1549400D01*
X9998453Y-1549400D01*
X9998453Y-1041400D01*
X10074653Y-1041400D01*
X10150853Y-1041400D01*
X10074653Y-1549400D02*
G01*
X10074653Y-1574800D01*
X10074653Y-1041400D02*
G01*
X10074653Y-1016000D01*
X10138153Y-1485900D02*
G01*
X10011153Y-1485900D01*
X8267700Y-1041394D02*
G01*
X8267700Y-1549394D01*
X8191500Y-1549394D01*
X8115300Y-1549394D01*
X8115300Y-1041394D01*
X8191500Y-1041394D01*
X8267700Y-1041394D01*
X8191500Y-1549394D02*
G01*
X8191500Y-1574794D01*
X8191500Y-1041394D02*
G01*
X8191500Y-1015994D01*
X8255000Y-1485894D02*
G01*
X8128000Y-1485894D01*
X6362700Y-1041400D02*
G01*
X6362700Y-1549400D01*
X6286500Y-1549400D01*
X6210300Y-1549400D01*
X6210300Y-1041400D01*
X6286500Y-1041400D01*
X6362700Y-1041400D01*
X6286500Y-1549400D02*
G01*
X6286500Y-1574800D01*
X6286500Y-1041400D02*
G01*
X6286500Y-1016000D01*
X6350000Y-1485900D02*
G01*
X6223000Y-1485900D01*
D12*
X3877881Y4070972D02*
G01*
X3618801Y4070972D01*
X3593401Y4045572D01*
X3593401Y3933812D01*
X3570541Y3910952D01*
X3382581Y3910952D01*
X3347021Y3946512D01*
X3347021Y4040492D01*
X3324161Y4063352D01*
X3099300Y4063352D01*
X3458781Y4195432D02*
G01*
X3458781Y4131932D01*
X3474021Y4116692D01*
X3519741Y4116692D01*
X3529901Y4106532D01*
X3529901Y4022712D01*
X3519741Y4012552D01*
X3484181Y4012552D01*
X3463861Y3992232D01*
X3463861Y3984612D01*
X3463861Y3910952D01*
X3791859Y3275952D02*
G01*
X3732989Y3275952D01*
X3248022Y3275952D02*
G01*
X3193140Y3275952D01*
X3881762Y3517577D02*
G01*
X3881762Y3709992D01*
X3881762Y3992582D02*
G01*
X3881762Y4210951D01*
X3099300Y3516637D02*
G01*
X3099300Y3710932D01*
X3099300Y3991643D02*
G01*
X3099300Y4210951D01*
X3881762Y4210951D02*
G01*
X3099300Y4210951D01*
X6164800Y2305298D02*
G01*
X6164800Y3765301D01*
X6114801Y3815300D02*
G01*
X4654798Y3815300D01*
X4604799Y3765301D02*
G01*
X4604799Y2305298D01*
X4654798Y2255299D02*
G01*
X6114801Y2255299D01*
X8069800Y2305298D02*
G01*
X8069800Y3765301D01*
X8019801Y3815300D02*
G01*
X6559798Y3815300D01*
X6509799Y3765301D02*
G01*
X6509799Y2305298D01*
X6559798Y2255299D02*
G01*
X8019801Y2255299D01*
X9974800Y2305298D02*
G01*
X9974800Y3765301D01*
X9924801Y3815300D02*
G01*
X8464798Y3815300D01*
X8414799Y3765301D02*
G01*
X8414799Y2305298D01*
X8464798Y2255299D02*
G01*
X9924801Y2255299D01*
X9974800Y400298D02*
G01*
X9974800Y1860301D01*
X9924801Y1910300D02*
G01*
X8464798Y1910300D01*
X8414799Y1860301D02*
G01*
X8414799Y400298D01*
X8464798Y350299D02*
G01*
X9924801Y350299D01*
X8069800Y400298D02*
G01*
X8069800Y1860301D01*
X8019801Y1910300D02*
G01*
X6559798Y1910300D01*
X6509799Y1860301D02*
G01*
X6509799Y400298D01*
X6559798Y350299D02*
G01*
X8019801Y350299D01*
X6164800Y400298D02*
G01*
X6164800Y1860301D01*
X6114801Y1910300D02*
G01*
X4654798Y1910300D01*
X4604799Y1860301D02*
G01*
X4604799Y400298D01*
X4654798Y350299D02*
G01*
X6114801Y350299D01*
X6164800Y-3409701D02*
G01*
X6164800Y-1949698D01*
X6114801Y-1899699D02*
G01*
X4654798Y-1899699D01*
X4604799Y-1949698D02*
G01*
X4604799Y-3409701D01*
X4654798Y-3459700D02*
G01*
X6114801Y-3459700D01*
X8069800Y-3409701D02*
G01*
X8069800Y-1949698D01*
X8019801Y-1899699D02*
G01*
X6559798Y-1899699D01*
X6509799Y-1949698D02*
G01*
X6509799Y-3409701D01*
X6559798Y-3459700D02*
G01*
X8019801Y-3459700D01*
X9974800Y-3409701D02*
G01*
X9974800Y-1949698D01*
X9924801Y-1899699D02*
G01*
X8464798Y-1899699D01*
X8414799Y-1949698D02*
G01*
X8414799Y-3409701D01*
X8464798Y-3459700D02*
G01*
X9924801Y-3459700D01*
X9974800Y-1504701D02*
G01*
X9974800Y-44698D01*
X9924801Y5300D02*
G01*
X8464798Y5300D01*
X8414799Y-44698D02*
G01*
X8414799Y-1504701D01*
X8464798Y-1554700D02*
G01*
X9924801Y-1554700D01*
X8069800Y-1504701D02*
G01*
X8069800Y-44698D01*
X8019801Y5300D02*
G01*
X6559798Y5300D01*
X6509799Y-44698D02*
G01*
X6509799Y-1504701D01*
X6559798Y-1554700D02*
G01*
X8019801Y-1554700D01*
X6164800Y-1504701D02*
G01*
X6164800Y-44698D01*
X6114801Y5300D02*
G01*
X4654798Y5300D01*
X4604799Y-44698D02*
G01*
X4604799Y-1504701D01*
X4654798Y-1554700D02*
G01*
X6114801Y-1554700D01*
X2603703Y342747D02*
G01*
X2857703Y342747D01*
X2857703Y-2959252D01*
X2603703Y-2959252D01*
X2603703Y342747D01*
X4127500Y342900D02*
G01*
X4381500Y342900D01*
X4381500Y-2959100D01*
X4127500Y-2959100D01*
X4127500Y342900D01*
X2857502Y342897D02*
G01*
X4127500Y342897D01*
X2603502Y88897D02*
G01*
X2857502Y88897D01*
X4127500Y88897D02*
G01*
X4381497Y88897D01*
X3092500Y541883D02*
G01*
X3892499Y541883D01*
X3892499Y341884D01*
X3092500Y341884D01*
X3092500Y541883D01*
X2857502Y-2959097D02*
G01*
X4127500Y-2959097D01*
G75*
G01*
X4604799Y2305299D02*
G03*
X4654799Y2255299I50000J0D01*
G75*
G01*
X6114801Y2255299D02*
G03*
X6164801Y2305299I0J50000D01*
G75*
G01*
X4654799Y3815301D02*
G03*
X4604799Y3765301I0J-50000D01*
G75*
G01*
X6164801Y3765301D02*
G03*
X6114801Y3815301I-50000J0D01*
G75*
G01*
X6509799Y2305299D02*
G03*
X6559799Y2255299I50000J0D01*
G75*
G01*
X8019801Y2255299D02*
G03*
X8069801Y2305299I0J50000D01*
G75*
G01*
X6559799Y3815301D02*
G03*
X6509799Y3765301I0J-50000D01*
G75*
G01*
X8069801Y3765301D02*
G03*
X8019801Y3815301I-50000J0D01*
G75*
G01*
X8414799Y2305299D02*
G03*
X8464799Y2255299I50000J0D01*
G75*
G01*
X9924801Y2255299D02*
G03*
X9974801Y2305299I0J50000D01*
G75*
G01*
X8464799Y3815301D02*
G03*
X8414799Y3765301I0J-50000D01*
G75*
G01*
X9974801Y3765301D02*
G03*
X9924801Y3815301I-50000J0D01*
G75*
G01*
X8414799Y400299D02*
G03*
X8464799Y350299I50000J0D01*
G75*
G01*
X9924801Y350299D02*
G03*
X9974801Y400299I0J50000D01*
G75*
G01*
X8464799Y1910301D02*
G03*
X8414799Y1860301I0J-50000D01*
G75*
G01*
X9974801Y1860301D02*
G03*
X9924801Y1910301I-50000J0D01*
G75*
G01*
X6509799Y400299D02*
G03*
X6559799Y350299I50000J0D01*
G75*
G01*
X8019801Y350299D02*
G03*
X8069801Y400299I0J50000D01*
G75*
G01*
X6559799Y1910301D02*
G03*
X6509799Y1860301I0J-50000D01*
G75*
G01*
X8069801Y1860301D02*
G03*
X8019801Y1910301I-50000J0D01*
G75*
G01*
X4604799Y400299D02*
G03*
X4654799Y350299I50000J0D01*
G75*
G01*
X6114801Y350299D02*
G03*
X6164801Y400299I0J50000D01*
G75*
G01*
X4654799Y1910301D02*
G03*
X4604799Y1860301I0J-50000D01*
G75*
G01*
X6164801Y1860301D02*
G03*
X6114801Y1910301I-50000J0D01*
G75*
G01*
X4604799Y-3409701D02*
G03*
X4654799Y-3459701I50000J0D01*
G75*
G01*
X6114801Y-3459701D02*
G03*
X6164801Y-3409701I0J50000D01*
G75*
G01*
X4654799Y-1899699D02*
G03*
X4604799Y-1949699I0J-50000D01*
G75*
G01*
X6164801Y-1949699D02*
G03*
X6114801Y-1899699I-50000J0D01*
G75*
G01*
X6509799Y-3409701D02*
G03*
X6559799Y-3459701I50000J0D01*
G75*
G01*
X8019801Y-3459701D02*
G03*
X8069801Y-3409701I0J50000D01*
G75*
G01*
X6559799Y-1899699D02*
G03*
X6509799Y-1949699I0J-50000D01*
G75*
G01*
X8069801Y-1949699D02*
G03*
X8019801Y-1899699I-50000J0D01*
G75*
G01*
X8414799Y-3409701D02*
G03*
X8464799Y-3459701I50000J0D01*
G75*
G01*
X9924801Y-3459701D02*
G03*
X9974801Y-3409701I0J50000D01*
G75*
G01*
X8464799Y-1899699D02*
G03*
X8414799Y-1949699I0J-50000D01*
G75*
G01*
X9974801Y-1949699D02*
G03*
X9924801Y-1899699I-50000J0D01*
G75*
G01*
X8414799Y-1504701D02*
G03*
X8464799Y-1554701I50000J0D01*
G75*
G01*
X9924801Y-1554701D02*
G03*
X9974801Y-1504701I0J50000D01*
G75*
G01*
X8464799Y5301D02*
G03*
X8414799Y-44699I0J-50000D01*
G75*
G01*
X9974801Y-44699D02*
G03*
X9924801Y5301I-50000J0D01*
G75*
G01*
X6509799Y-1504701D02*
G03*
X6559799Y-1554701I50000J0D01*
G75*
G01*
X8019801Y-1554701D02*
G03*
X8069801Y-1504701I0J50000D01*
G75*
G01*
X6559799Y5301D02*
G03*
X6509799Y-44699I0J-50000D01*
G75*
G01*
X8069801Y-44699D02*
G03*
X8019801Y5301I-50000J0D01*
G75*
G01*
X4604799Y-1504701D02*
G03*
X4654799Y-1554701I50000J0D01*
G75*
G01*
X6114801Y-1554701D02*
G03*
X6164801Y-1504701I0J50000D01*
G75*
G01*
X4654799Y5301D02*
G03*
X4604799Y-44699I0J-50000D01*
G75*
G01*
X6164801Y-44699D02*
G03*
X6114801Y5301I-50000J0D01*
M02*
