G04 Layer: BottomLayer*
G04 EasyEDA v6.5.14, 2022-08-21 10:02:06*
G04 f0c9403b1c134f068d22612342c05ff7,da7caadd334e45d081e68ba313aefb3e,10*
G04 Gerber Generator version 0.2*
G04 Scale: 100 percent, Rotated: No, Reflected: No *
G04 Dimensions in millimeters *
G04 leading zeros omitted , absolute positions ,4 integer and 5 decimal *
%FSLAX45Y45*%
%MOMM*%

%AMMACRO1*4,1,4,-1.275,1.25,-1.275,-1.25,1.275,-1.25,1.275,1.25,-1.275,1.25,0*%
%AMMACRO2*4,1,4,-1.275,1.25,1.275,1.25,1.275,-1.25,-1.275,-1.25,-1.275,1.25,0*%
%ADD10C,0.4000*%
%ADD11C,0.2540*%
%ADD12MACRO1*%
%ADD13MACRO2*%
%ADD14C,1.5240*%
%ADD15C,1.8796*%
%ADD16O,1.1999976X2.3999952*%
%ADD17C,1.2000*%
%ADD18R,1.5240X1.5240*%

%LPD*%
D10*
X8458708Y-2425700D02*
G01*
X8458708Y-3695192D01*
X8153400Y-4000500D01*
X5422900Y-4000500D01*
X4254500Y-2832100D01*
X6553809Y-2425700D02*
G01*
X6553809Y-3720490D01*
X6388100Y-3886200D01*
X5562600Y-3886200D01*
X4254500Y-2578100D01*
X10121902Y2870200D02*
G01*
X10121902Y3225187D01*
X9803790Y3543300D01*
X8191502Y2870200D02*
G01*
X8191502Y3250587D01*
X7898790Y3543300D01*
X6286500Y2870200D02*
G01*
X6286500Y3250590D01*
X5993790Y3543300D01*
X6286500Y914400D02*
G01*
X6286500Y1345590D01*
X5993790Y1638300D01*
X8191500Y914397D02*
G01*
X8191500Y1345590D01*
X7898790Y1638300D01*
X10121900Y914397D02*
G01*
X10121900Y1320190D01*
X9803790Y1638300D01*
X10074653Y-914400D02*
G01*
X10074653Y-537563D01*
X9803790Y-266700D01*
X8191500Y-914400D02*
G01*
X8191500Y-559409D01*
X7898790Y-266700D01*
X6286500Y-914400D02*
G01*
X6286500Y-559409D01*
X5993790Y-266700D01*
X6286500Y-2921000D02*
G01*
X6286500Y-2464409D01*
X5993790Y-2171700D01*
X8191500Y-2921002D02*
G01*
X8191500Y-2464409D01*
X7898790Y-2171700D01*
X10121900Y-2921002D02*
G01*
X10121900Y-2489809D01*
X9803790Y-2171700D01*
X3120504Y3851287D02*
G01*
X3120504Y3376284D01*
X3864495Y3851287D02*
G01*
X3120504Y3851287D01*
X3864495Y3376284D02*
G01*
X3864495Y3851287D01*
D11*
X2730500Y-546100D02*
G01*
X2730500Y-800100D01*
D10*
X8458807Y-2425700D02*
G01*
X8458807Y-520702D01*
X8458809Y-520700D01*
X4648809Y1384300D02*
G01*
X4648807Y1384297D01*
X4648807Y-520700D01*
X6553809Y1384300D02*
G01*
X6553809Y-520697D01*
X6553807Y-520700D01*
X8458809Y1384300D02*
G01*
X8458807Y1384297D01*
X8458807Y-520700D01*
X8458809Y3289300D02*
G01*
X8458807Y3289297D01*
X8458807Y1384300D01*
X4648809Y3289300D02*
G01*
X4648809Y1384302D01*
X4648807Y1384300D01*
X6553809Y3289300D02*
G01*
X6553809Y1384302D01*
X6553807Y1384300D01*
X4254500Y-292100D02*
G01*
X2984500Y-292100D01*
X2730500Y-546100D01*
X4661514Y-2413000D02*
G01*
X4343400Y-2413000D01*
X4254500Y-2324100D01*
X4648809Y-520700D02*
G01*
X4648809Y-2400289D01*
X4661519Y-2413000D01*
X6553807Y-520700D02*
G01*
X6553807Y-2425697D01*
X6553809Y-2425700D01*
D12*
G01*
X5993800Y3543300D03*
D13*
G01*
X4648799Y3289300D03*
D12*
G01*
X7898800Y3543300D03*
D13*
G01*
X6553799Y3289300D03*
D12*
G01*
X9803800Y3543300D03*
D13*
G01*
X8458799Y3289300D03*
D12*
G01*
X9803799Y1638300D03*
D13*
G01*
X8458798Y1384300D03*
D12*
G01*
X7898800Y1638300D03*
D13*
G01*
X6553799Y1384300D03*
D12*
G01*
X5993800Y1638300D03*
D13*
G01*
X4648799Y1384300D03*
D12*
G01*
X5993799Y-2171700D03*
D13*
G01*
X4648798Y-2425700D03*
D12*
G01*
X7898800Y-2171700D03*
D13*
G01*
X6553799Y-2425700D03*
D12*
G01*
X9803800Y-2171700D03*
D13*
G01*
X8458799Y-2425700D03*
D12*
G01*
X9803800Y-266700D03*
D13*
G01*
X8458799Y-520700D03*
D12*
G01*
X7898800Y-266700D03*
D13*
G01*
X6553799Y-520700D03*
D12*
G01*
X5993799Y-266700D03*
D13*
G01*
X4648798Y-520700D03*
D14*
G01*
X3175000Y2768600D03*
G01*
X3429000Y2768600D03*
G01*
X3937000Y2768600D03*
G01*
X3683000Y2768600D03*
D15*
G01*
X6286500Y2870200D03*
G01*
X6286500Y2108200D03*
G01*
X8191502Y2870200D03*
G01*
X8191502Y2108200D03*
G01*
X10121902Y2870200D03*
G01*
X10121902Y2108200D03*
G01*
X10121900Y914397D03*
G01*
X10121900Y152397D03*
G01*
X8191500Y914397D03*
G01*
X8191500Y152397D03*
G01*
X6286500Y914400D03*
G01*
X6286500Y152400D03*
G01*
X6286500Y-2921000D03*
G01*
X6286500Y-3683000D03*
G01*
X8191500Y-2921002D03*
G01*
X8191500Y-3683002D03*
G01*
X10121900Y-2921002D03*
G01*
X10121900Y-3683002D03*
G01*
X10074653Y-914400D03*
G01*
X10074653Y-1676400D03*
G01*
X8191500Y-914400D03*
G01*
X8191500Y-1676400D03*
G01*
X6286500Y-914400D03*
G01*
X6286500Y-1676400D03*
D16*
G01*
X3864483Y3851275D03*
G01*
X3864483Y3376269D03*
G01*
X3120516Y3376269D03*
D17*
G01*
X3330524Y3286099D03*
G01*
X3490518Y3286099D03*
G01*
X3410534Y3406470D03*
G01*
X3570528Y3406470D03*
G01*
X3650513Y3286099D03*
D16*
G01*
X3120516Y3851275D03*
D18*
G01*
X2730500Y-38100D03*
D14*
G01*
X2730500Y-292100D03*
G01*
X2730500Y-546100D03*
G01*
X2730500Y-800100D03*
G01*
X2730500Y-1054100D03*
G01*
X2730500Y-1308100D03*
G01*
X2730500Y-1562100D03*
G01*
X2730500Y-1816100D03*
G01*
X2730500Y-2070100D03*
G01*
X2730500Y-2324100D03*
G01*
X2730500Y-2578100D03*
G01*
X2730500Y-2832100D03*
G01*
X4254500Y-2832100D03*
G01*
X4254500Y-2578100D03*
G01*
X4254500Y-2324100D03*
G01*
X4254500Y-2070100D03*
G01*
X4254500Y-1816100D03*
G01*
X4254500Y-1562100D03*
G01*
X4254500Y-1308100D03*
G01*
X4254500Y-1054100D03*
G01*
X4254500Y-800100D03*
G01*
X4254500Y-546100D03*
G01*
X4254500Y-292100D03*
G01*
X4254500Y-38100D03*
M02*
